<?xml version="1.0" encoding="UTF-8" standalone="no"?>
<!-- Created with Inkscape (http://www.inkscape.org/) -->

<svg
   version="1.1"
   id="svg267"
   width="323.84"
   height="109.44"
   viewBox="0 0 323.84 109.44"
   sodipodi:docname="Indian Bank image.svg"
   inkscape:version="1.2.1 (9c6d41e410, 2022-07-14)"
   xmlns:inkscape="http://www.inkscape.org/namespaces/inkscape"
   xmlns:sodipodi="http://sodipodi.sourceforge.net/DTD/sodipodi-0.dtd"
   xmlns="http://www.w3.org/2000/svg"
   xmlns:svg="http://www.w3.org/2000/svg">
  <defs
     id="defs271" />
  <sodipodi:namedview
     id="namedview269"
     pagecolor="#ffffff"
     bordercolor="#000000"
     borderopacity="0.25"
     inkscape:showpageshadow="2"
     inkscape:pageopacity="0.0"
     inkscape:pagecheckerboard="0"
     inkscape:deskcolor="#d1d1d1"
     showgrid="false"
     inkscape:zoom="2.8748765"
     inkscape:cx="161.92"
     inkscape:cy="54.611041"
     inkscape:window-width="1366"
     inkscape:window-height="705"
     inkscape:window-x="-8"
     inkscape:window-y="-8"
     inkscape:window-maximized="1"
     inkscape:current-layer="g273" />
  <g
     inkscape:groupmode="layer"
     inkscape:label="Image"
     id="g273">
    <g
       id="g277"
       transform="translate(1.3913641,-0.69568239)">
      <path
         style="fill:#f6f8fa;stroke-width:0.64"
         d="m 2.4348872,109.02273 v -3.2 h 159.0400028 159.04 V 54.302728 2.7827282 h 2.88 2.88 V 57.502728 112.22273 H 164.35489 2.4348872 Z M 169.51978,57.550521 c -0.78164,-0.832017 -1.15336,-1.678264 -0.82606,-1.88055 0.32731,-0.202286 1.23463,0.312948 2.01627,1.144965 0.78164,0.832016 1.15336,1.678263 0.82606,1.880549 -0.32731,0.202286 -1.23462,-0.312948 -2.01627,-1.144964 z M 13.954887,50.142017 c 0,-0.352391 -1.151132,-1.757847 -2.558071,-3.123236 -2.0409464,-1.98067 -2.3868229,-2.624649 -1.7109496,-3.185573 0.6164406,-0.5116 1.3744776,-0.503997 2.7836956,0.02792 2.153844,0.812985 4.295001,0.310626 3.887435,-0.912073 -0.161469,-0.484407 -1.14444,-0.717171 -2.525987,-0.598144 -2.614548,0.225257 -4.3561228,-1.12428 -4.3561228,-3.375536 0,-1.896772 1.0548168,-2.74169 3.8425698,-3.077935 1.726947,-0.208296 1.470825,-0.293236 -1.12257,-0.372291 -2.8779096,-0.08773 -3.3599998,-0.282752 -3.3599998,-1.359248 0,-1.150638 0.5272058,-1.272301 6.2399998,-1.44 l 6.24,-0.183176 0.32,-2.238693 c 0.274535,-1.920621 0.665943,-2.351818 2.754857,-3.034899 3.127196,-1.022604 6.704977,-0.257684 12.540803,2.681191 l 4.338685,2.184927 14.822828,0.459274 c 13.83219,0.42858 14.822827,0.538434 14.822827,1.643737 0,0.836761 -0.469683,1.184463 -1.6,1.184463 -1.588147,0 -1.6,0.04267 -1.6,5.76 0,5.333333 -0.09482,5.76 -1.28,5.76 -1.109333,0 -1.28,-0.426667 -1.28,-3.2 0,-2.986667 -0.106667,-3.2 -1.6,-3.2 -1.242898,0 -1.6,0.328533 -1.6,1.472 0,1.861118 -1.129452,3.008 -2.962285,3.008 -1.819319,0 -3.440531,-1.610713 -3.427914,-3.405714 0.01821,-2.590674 1.039596,-3.298935 5.240504,-3.633925 3.162984,-0.252224 4.062752,-0.558569 4.230494,-1.440361 0.190896,-1.003509 -0.424205,-1.12 -5.913871,-1.12 h -6.126928 v 5.76 c 0,5.333333 -0.09481,5.76 -1.28,5.76 -0.92516,0 -1.28,-0.426667 -1.28,-1.539099 0,-1.411555 -0.200706,-1.51218 -2.421931,-1.214251 -2.060694,0.276397 -2.737362,0.03019 -4.536741,-1.650679 -2.351425,-2.19656 -2.361615,-3.377668 -0.03388,-3.927172 0.988963,-0.233462 1.552551,-0.820684 1.552551,-1.617653 0,-1.038551 -0.516558,-1.284291 -3.04,-1.446212 -2.884288,-0.185075 -3.04,-0.111317 -3.04,1.44 0,1.537956 -0.192298,1.635066 -3.237771,1.635066 -1.780773,0 -3.077383,0.259512 -2.881355,0.576693 0.196029,0.317181 1.39846,0.547156 2.67207,0.511054 1.587415,-0.045 2.594192,0.315286 3.201354,1.14563 1.197006,1.637003 1.118814,2.41765 -0.440749,4.400313 -1.061577,1.349577 -1.860323,1.682246 -4,1.665956 -2.667288,-0.02031 -4.913549,-1.11605 -4.913549,-2.396868 0,-1.049111 1.397233,-1.267341 3.363169,-0.525283 1.268632,0.478855 2.110603,0.472805 2.893112,-0.02079 1.638732,-1.033687 0.782451,-1.836707 -1.95853,-1.836707 -2.428381,0 -3.63815,-0.957667 -3.63815,-2.88 0,-1.750898 1.09889,-2.734379 3.593739,-3.216313 1.976576,-0.381818 1.417613,-0.491111 -2.81334,-0.550087 l -5.28,-0.0736 v 5.76 c 0,5.333333 -0.09482,5.76 -1.28,5.76 -1.185185,0 -1.28,-0.426667 -1.28,-5.76 v -5.76 h -2.24 c -1.962667,0 -2.24,0.198096 -2.24,1.6 0,1.493333 -0.213333,1.6 -3.2,1.6 -1.943703,0 -3.2,0.282667 -3.2,0.72 0,0.458689 0.696928,0.580615 1.920275,0.335945 2.433488,-0.486697 4.852975,0.41488 5.256725,1.958822 0.476545,1.822309 -0.563231,3.955275 -2.317826,4.754722 -1.46625,0.668069 -1.511356,0.821144 -0.635733,2.157513 0.840528,1.282809 0.830487,1.481407 -0.09282,1.835712 -1.487098,0.570653 -2.210623,0.490982 -2.210623,-0.243425 z m 45.44,-8.67706 c 0,-0.548773 -0.292697,-0.816873 -0.650439,-0.595777 -0.357742,0.221097 -0.484745,0.670093 -0.28223,0.997771 0.548634,0.887708 0.932669,0.722183 0.932669,-0.401994 z M 48.793223,41.198569 c 1.386904,-0.5273 1.641664,-1.023889 1.641664,-3.2 0,-2.149174 -0.212021,-2.575841 -1.28,-2.575841 -0.983452,0 -1.28,0.426667 -1.28,1.841635 0,1.0129 -0.428829,2.197533 -0.952953,2.632517 -0.524125,0.434984 -0.795127,1.046249 -0.60223,1.358365 0.436056,0.705552 0.4708,0.704756 2.473519,-0.05668 z M 33.794887,31.168989 c -1.232,-0.552 -3.815,-1.044727 -5.74,-1.094949 -2.864531,-0.07473 -3.541203,0.112039 -3.726928,1.028688 -0.20346,1.004183 0.390105,1.117409 5.740001,1.094949 5.952962,-0.02499 5.961684,-0.0274 3.726927,-1.028688 z M 143.23489,46.302728 c -1.32527,-1.325266 -1.68179,-2.56 -0.7392,-2.56 0.29745,0 1.06208,0.576 1.6992,1.28 0.63711,0.704 1.90574,1.28441 2.81919,1.289801 1.30732,0.0077 1.45648,0.141846 0.70081,0.630199 -1.50959,0.975571 -3.09024,0.749765 -4.48,-0.64 z m 13.15906,0.04316 c -0.61563,-0.680261 -1.45881,-1.106568 -1.87373,-0.947347 -0.98369,0.377479 -3.22086,-3.342349 -2.33822,-3.887852 0.35609,-0.220076 0.98372,0.337919 1.39474,1.239991 0.411,0.902072 1.06761,1.566573 1.4591,1.47667 0.92805,-0.213116 4.27857,2.422525 3.75068,2.950414 -0.66355,0.663549 -1.21172,0.472958 -2.39257,-0.831876 z M 81.794887,45.773572 c 0,-0.929776 -0.385337,-1.112601 -1.882022,-0.892934 -2.165523,0.31783 -5.157978,-2.140844 -5.157978,-4.237917 0,-2.254958 2.182298,-4.195993 4.717543,-4.195993 1.27735,0 2.322457,-0.2304 2.322457,-0.512 0,-0.2816 -1.728,-0.512 -3.84,-0.512 -3.669331,0 -3.84,-0.07111 -3.84,-1.6 0,-1.451135 0.248563,-1.6 2.671559,-1.6 h 2.671564 l -1.458611,-1.552622 c -1.418374,-1.509791 -1.358912,-2.927378 0.122791,-2.927378 0.40247,0 1.715206,0.936 2.917203,2.08 l 2.18544,2.08 -1.034976,-2.048217 c -1.289338,-2.551619 -1.295507,-3.15486 -0.03718,-3.637725 0.737312,-0.282934 1.337971,0.435691 2.300928,2.752816 0.842073,2.026261 1.791065,3.266605 2.682208,3.505677 0.758489,0.203484 5.051072,0.373904 9.539072,0.37871 7.730425,0.0083 8.160005,0.07612 8.160005,1.288739 0,1.148718 -0.42667,1.28 -4.16,1.28 -3.271109,0 -4.159999,0.205129 -4.159999,0.96 0,0.634797 0.634919,0.96 1.874285,0.96 2.449604,0 3.885714,1.509168 3.885714,4.083392 0,2.632962 -1.60926,4.992383 -2.490546,3.651532 -0.327181,-0.497792 -0.438976,-1.865792 -0.248422,-3.04 0.257465,-1.586602 0.111257,-2.134924 -0.569293,-2.134924 -1.614643,0 -2.451738,1.464046 -2.451738,4.288 0,2.325333 -0.198451,2.752 -1.28,2.752 -0.969798,0 -1.279897,-0.426527 -1.279577,-1.76 3.77e-4,-1.602984 -0.210861,-1.76 -2.367776,-1.76 -1.890279,0 -2.560743,-0.340293 -3.322349,-1.686252 -0.858458,-1.517129 -0.84416,-1.85412 0.142528,-3.36 0.834624,-1.273798 1.628416,-1.673748 3.321926,-1.673748 1.223885,0 2.225248,-0.288 2.225248,-0.64 0,-0.365714 -1.92,-0.64 -4.48,-0.64 h -4.48 v 5.76 c 0,5.717333 -0.01184,5.76 -1.6,5.76 -1.122771,0 -1.6,-0.348723 -1.6,-1.169156 z m -2.56,-3.552479 c 0,-0.1329 -0.504,-0.6369 -1.12,-1.12 -1.015078,-0.796077 -1.037715,-0.773441 -0.241638,0.241635 0.836077,1.066079 1.361638,1.405107 1.361638,0.878365 z m 2.56,-1.929892 c 0,-0.49034 -0.438662,-1.059858 -0.974809,-1.265597 -0.795303,-0.305185 -0.85008,-0.141013 -0.297485,0.891527 0.793984,1.483562 1.272294,1.624192 1.272294,0.37407 z m 11.147655,0.503054 c 1.558073,-0.597888 1.199833,-1.531527 -0.587655,-1.531527 -0.995558,0 -1.6,0.362667 -1.6,0.96 0,1.032938 0.58617,1.186075 2.187655,0.571527 z M 214.55558,45.36161 c -1.54288,-1.542888 -1.68234,-2.063224 -1.4155,-5.28111 0.34444,-4.153386 1.61097,-5.507615 4.81481,-5.148162 2.02263,0.226928 2.08,0.166297 2.08,-2.198122 0,-2.274987 0.12357,-2.431488 1.92,-2.431488 h 1.92 v 8 8 l -2.4,0.0087 c -1.32,0.0048 -3.03175,0.178147 -3.80389,0.385201 -0.997,0.26735 -1.89995,-0.119599 -3.11542,-1.335058 z m 5.35215,-4.583329 c 0.14977,-2.045322 -0.0609,-2.730751 -0.94312,-3.069312 -2.15774,-0.828 -3.77794,3.489542 -1.98304,5.284439 1.48777,1.48778 2.7235,0.552327 2.92616,-2.215127 z m 14.42344,5.540804 c -1.58188,-0.655593 -2.40339,-2.646532 -1.83326,-4.442865 0.39403,-1.241466 3.33696,-2.613492 5.60582,-2.613492 0.71408,0 1.11843,-0.338489 0.95565,-0.8 -0.173,-0.490501 -1.28787,-0.755104 -2.88173,-0.683952 -1.73611,0.0775 -2.71506,-0.184976 -2.94733,-0.790238 -0.80142,-2.088475 5.19639,-3.020667 7.78216,-1.209519 1.25415,0.878438 1.42241,1.562164 1.42241,5.780048 v 4.783758 l -2.08,-0.07315 c -1.144,-0.04024 -2.656,0.08345 -3.36,0.274864 -0.704,0.191411 -1.90268,0.08996 -2.66372,-0.225451 z m 3.89137,-2.32483 c 1.5982,-0.613286 1.20362,-2.171527 -0.54988,-2.171527 -1.68569,0 -2.59391,0.890701 -1.95777,1.92 0.45528,0.736668 1.08008,0.799338 2.50765,0.251527 z m 40.85235,1.974371 c -1.61391,-1.141479 -1.96307,-4.195064 -0.60825,-5.319463 0.45746,-0.379661 2.04563,-0.8844 3.52925,-1.121641 2.25935,-0.361284 2.57272,-0.581696 1.92929,-1.35698 -0.52179,-0.628728 -1.42473,-0.802469 -2.81499,-0.541654 -1.55786,0.292255 -2.14457,0.129173 -2.45611,-0.682692 -0.56235,-1.465474 -0.22879,-1.664318 3.37245,-2.010352 4.6428,-0.446114 5.84836,0.97765 5.84836,6.906933 v 4.500048 l -2.08,-0.107197 c -1.144,-0.05896 -2.8,0.08601 -3.68,0.322141 -1.03116,0.276696 -2.11196,0.06724 -3.04,-0.589143 z m 4.832,-2.353898 c 1.18615,-1.18615 0.91763,-1.792 -0.79423,-1.792 -1.68569,0 -2.59391,0.890701 -1.95777,1.92 0.53542,0.866334 1.81728,0.806712 2.752,-0.128 z m -109.19664,0.864723 c -0.2685,-4.988313 -3.41259,-8.508858 -8.9651,-10.038496 -2.90973,-0.801585 -2.93106,-0.825314 -0.79232,-0.881 3.10853,-0.08094 7.43275,2.203574 9.01405,4.762181 1.00494,1.626017 1.28003,2.93569 1.0995,5.234591 -0.16998,2.164472 -0.27469,2.43579 -0.35613,0.922724 z m 19.72464,-6.176723 v -8 h 1.6 1.6 v 8 8 h -1.6 -1.6 z m 6.4,2.304 v -5.696 h 3.85828 c 5.18124,0 5.74172,0.647945 5.74172,6.637715 0,4.644571 -0.0369,4.754285 -1.6,4.754285 -1.54044,0 -1.6,-0.152889 -1.6,-4.106667 0,-2.709836 -0.27211,-4.201584 -0.8,-4.385723 -1.85941,-0.6486 -2.4,0.342678 -2.4,4.400863 0,3.937629 -0.0602,4.091527 -1.6,4.091527 -1.58682,0 -1.6,-0.04693 -1.6,-5.696 z m 25.6,-0.064 c 0,-5.717333 0.0118,-5.76 1.6,-5.76 1.58814,0 1.6,0.04267 1.6,5.76 0,5.717333 -0.0118,5.76 -1.6,5.76 -1.58815,0 -1.6,-0.04267 -1.6,-5.76 z m 18.69508,0.16 0.18492,-5.6 3.96768,-0.146598 c 5.35582,-0.197887 5.95232,0.462748 5.95232,6.592313 0,4.644571 -0.0369,4.754285 -1.6,4.754285 -1.52276,0 -1.6,-0.1792 -1.6,-3.712 0,-3.812636 -0.76725,-5.404586 -2.31799,-4.809514 -0.62208,0.238714 -0.88201,1.544255 -0.88201,4.429987 v 4.091527 h -1.94492 -1.94492 z m 18.56522,-2.24 0.1797,-7.84 3.9857,-0.190168 c 2.19214,-0.104592 4.58193,0.128918 5.31064,0.518913 1.98155,1.060497 2.74648,3.612613 1.70719,5.695915 -0.7129,1.429052 -0.71482,1.856685 -0.0113,2.51389 1.26261,1.179477 1.02479,4.404385 -0.43227,5.86145 -1.05338,1.053375 -2.13333,1.28 -6.0997,1.28 h -4.8197 z m 8.0707,4.16 c 0.91901,-1.786863 0.16964,-2.72 -2.18433,-2.72 -2.00297,0 -2.18667,0.161301 -2.18667,1.92 0,1.701603 0.21583,1.92 1.89748,1.92 1.16102,0 2.12106,-0.434703 2.47352,-1.12 z m -0.211,-7.52 c 0,-0.976297 -0.49352,-1.327584 -2.08,-1.480549 -1.86966,-0.180269 -2.08,-0.03055 -2.08,1.480549 0,1.511097 0.21034,1.660818 2.08,1.480549 1.58648,-0.152965 2.08,-0.504251 2.08,-1.480549 z m 18.88,5.511884 v -5.688115 l 4.15726,-0.02398 c 5.29727,-0.03056 6.08274,0.881439 6.08274,7.062616 0,4.200102 -0.0507,4.337596 -1.6,4.337596 -1.52519,0 -1.6,-0.175891 -1.6,-3.761635 0,-2.675401 -0.29722,-4.008302 -1.02926,-4.615842 -1.57701,-1.308806 -2.81074,0.876993 -2.81074,4.9798 0,3.197522 -0.0943,3.397677 -1.6,3.397677 -1.58665,0 -1.6,-0.04746 -1.6,-5.688117 z m 12.9403,-2.151884 0.1797,-7.84 1.76,-0.20251 1.76,-0.202511 0.007,4.362511 0.007,4.36251 1.63928,-2.08 c 1.04445,-1.325244 2.20304,-2.08 3.19291,-2.08 1.94398,0 1.94005,0.315968 -0.0331,2.660896 l -1.58669,1.885671 1.96778,3.486716 1.96779,3.486717 h -1.88032 c -1.48612,0 -2.12879,-0.461396 -3.06555,-2.200852 -1.36012,-2.525607 -2.21632,-2.402519 -2.21632,0.318623 0,1.668947 -0.2198,1.882229 -1.9397,1.882229 h -1.9397 z m -157.40697,3.613333 c 0.21266,-0.212666 0.76466,-0.235403 1.22667,-0.05053 0.51054,0.204305 0.3589,0.355957 -0.38667,0.386667 -0.67466,0.02779 -1.05267,-0.123474 -0.84,-0.336141 z m 2.54336,-2.333333 c -1.07957,-1.349392 -1.43909,-3.31069 -0.79188,-4.32 0.50317,-0.784684 0.61738,-0.712788 0.62539,0.39369 0.005,0.74453 0.6067,2.11253 1.33625,3.04 1.01474,1.290032 1.10835,1.68631 0.39836,1.68631 -0.51044,0 -1.2161,-0.36 -1.56812,-0.8 z m -13.44276,-3.475315 c -1.49933,-0.873005 -2.55951,-1.85677 -2.35595,-2.186145 0.47023,-0.760844 4.03197,1.285518 4.84119,2.78146 0.33322,0.616 0.52373,1.091193 0.42334,1.055983 -0.10038,-0.03521 -1.40925,-0.778293 -2.90858,-1.651298 z m 91.79274,-3.191352 c -0.23467,-0.234666 -0.42667,-0.954666 -0.42667,-1.6 0,-0.824889 0.47515,-1.173333 1.6,-1.173333 1.28,0 1.6,0.32 1.6,1.6 0,1.124849 -0.34844,1.6 -1.17333,1.6 -0.64534,0 -1.36534,-0.192 -1.6,-0.426667 z m -62.83212,-7.608587 c -3.70095,-5.850939 -4.07024,-6.666359 -3.03455,-6.700628 0.92391,-0.03057 8.03124,11.600646 7.44615,12.185725 -0.34274,0.342737 -2.1341,-1.884524 -4.4116,-5.485097 z M 15.870066,28.696919 c -0.604211,-0.72803 -0.642882,-1.202487 -0.139074,-1.706296 0.970904,-0.970904 2.842857,-0.120508 2.591196,1.177136 -0.287399,1.481914 -1.452706,1.733383 -2.452122,0.52916 z m 69.835292,0.09072 c -1.098413,-1.323507 0.821683,-2.803526 2.17742,-1.678365 0.736199,0.610987 0.794042,1.01276 0.241639,1.678365 -0.916474,1.104281 -1.502586,1.104281 -2.419059,0 z m 56.493692,-7.130178 c 2.25162,-1.68088 7.56171,-2.361736 12.16605,-1.559924 2.32638,0.405122 4.22979,1.028611 4.22979,1.38553 0,0.3769 -0.60367,0.464186 -1.44,0.208215 -3.40377,-1.041763 -10.42226,-1.107958 -13.28,-0.12525 -2.28482,0.785691 -2.63115,0.804586 -1.67584,0.09143 z"
         id="path293" />
      <path
         style="fill:#fcf37c;stroke-width:0.64"
         d="m 82.00633,105.34275 c 43.94029,-0.0908 115.65229,-0.0907 159.36,0 43.70771,0.0908 7.75656,0.16502 -79.89144,0.16502 -87.648003,-10e-6 -123.408854,-0.0743 -79.46856,-0.16502 z m 87.08775,-47.680022 -1.21919,-1.44 1.44,1.219193 c 1.35324,1.145739 1.73135,1.660807 1.21919,1.660807 -0.12145,0 -0.76945,-0.648 -1.44,-1.44 z M 153.94026,46.984061 c -0.17816,-0.681267 0.0313,-1.374974 0.46543,-1.541571 0.53476,-0.205204 0.69431,0.194318 0.49467,1.238667 -0.35658,1.865349 -0.53666,1.92216 -0.9601,0.302904 z m 4.65463,0.278667 c 0.4382,-0.528 0.94073,-0.96 1.11673,-0.96 0.176,0 -0.0385,0.432 -0.47673,0.96 -0.4382,0.528 -0.94073,0.96 -1.11673,0.96 -0.176,0 0.0385,-0.432 0.47673,-0.96 z m 15.41053,-0.586667 c -0.0278,-0.674666 0.12347,-1.052666 0.33614,-0.84 0.21266,0.212667 0.23539,0.764667 0.0505,1.226667 -0.2043,0.510549 -0.35595,0.358897 -0.38666,-0.386667 z m -29.49053,-4.853333 c -0.77234,-0.49912 -0.67112,-0.622315 0.51777,-0.630199 0.82404,-0.0054 1.30279,0.273319 1.08223,0.630199 -0.47564,0.7696 -0.40913,0.7696 -1.6,0 z m 26.79836,-4.32 c -0.79608,-1.015076 -0.77344,-1.037712 0.24164,-0.241635 0.616,0.4831 1.12,0.9871 1.12,1.12 0,0.526742 -0.52556,0.187714 -1.36164,-0.878365 z m -10.15836,-2.971527 c 0,-0.13834 0.432,-0.417301 0.96,-0.619913 0.528,-0.202614 0.96,-0.08943 0.96,0.251527 0,0.340952 -0.432,0.619913 -0.96,0.619913 -0.528,0 -0.96,-0.113187 -0.96,-0.251527 z m 2.73333,-0.13514 c 0.21266,-0.212666 0.76466,-0.235403 1.22667,-0.05053 0.51054,0.204305 0.3589,0.355957 -0.38667,0.386667 -0.67466,0.02779 -1.05267,-0.123474 -0.84,-0.336141 z m -17.92,-13.44 c 0.21266,-0.212666 0.76466,-0.235403 1.22667,-0.05053 0.51054,0.204305 0.3589,0.355957 -0.38667,0.386667 -0.67466,0.02779 -1.05267,-0.123474 -0.84,-0.336141 z m 6.06667,-0.03719 c 0.44,-0.177544 1.16,-0.177544 1.6,0 0.44,0.177544 0.08,0.322807 -0.8,0.322807 -0.88,0 -1.24,-0.145263 -0.8,-0.322807 z"
         id="path291" />
      <path
         style="fill:#fdef00;stroke-width:0.64"
         d="m 2.4348872,88.222728 v -16.96 h 159.0400028 159.04 v 16.96 16.960002 H 161.47489 2.4348872 Z m 29.1852368,7.9752 c 1.235641,-0.469792 1.875025,-0.460185 2.179674,0.03277 0.364856,0.590349 2.470721,0.09611 4.343658,-1.019437 0.497802,-0.296499 -3.31059,-8.609152 -4.393023,-9.588742 -0.67955,-0.615002 -1.235546,-1.633203 -1.235546,-2.262688 0,-1.063539 -2.210138,-3.137101 -3.343727,-3.137101 -0.996352,0 -6.256273,7.861293 -6.256273,9.350407 0,0.877324 -0.378401,1.529593 -0.88736,1.529593 -0.729467,0 -1.906819,3.715603 -1.372375,4.331079 0.127752,0.147116 6.227194,1.121292 8.458071,1.35088 0.417086,0.04294 1.545191,-0.22112 2.506901,-0.586759 z M 27.855558,90.91853 c -0.507454,-1.322407 0.483456,-2.534343 1.856018,-2.27001 1.700388,0.327469 1.575196,2.721146 -0.155231,2.968045 -0.747199,0.106611 -1.512552,-0.207507 -1.700787,-0.698035 z m 20.356656,5.276166 c 0.227078,-0.367424 0.094,-1.052243 -0.295717,-1.52183 -0.544323,-0.655872 -0.415489,-0.930445 0.555758,-1.184429 1.629003,-0.42599 2.498082,-3.594842 1.252061,-4.565286 -0.494625,-0.385236 -0.805062,-1.348423 -0.689861,-2.140423 0.195689,-1.345344 0.522057,-1.44 4.964945,-1.44 3.941147,0 4.755487,0.176115 4.755487,1.028474 0,0.72848 -0.326688,0.893977 -1.12,0.567392 -2.557031,-1.052685 -3.306533,-1.009331 -4.580829,0.264966 -1.716757,1.716755 -1.68839,3.134842 0.107603,5.379098 1.006753,1.258035 1.778934,1.670035 2.564806,1.368467 1.054009,-0.404461 1.042461,-0.564038 -0.184473,-2.549261 -0.828683,-1.340832 -1.066409,-2.267635 -0.647986,-2.526233 0.365574,-0.225933 0.660879,0.132723 0.660879,0.802662 0,1.686842 0.61214,2.124384 1.96166,1.402138 0.96679,-0.517408 1.186117,-0.333479 1.355851,1.137049 0.122119,1.058003 0.647027,1.838605 1.322489,1.966701 0.981125,0.186067 1.12,-0.348915 1.12,-4.314528 0,-4.100256 0.120641,-4.526925 1.28,-4.526925 1.159359,0 1.28,0.426669 1.28,4.526925 0,3.966048 0.138768,4.500474 1.12,4.313389 0.911168,-0.173728 1.155286,-1.017811 1.309242,-4.526931 0.170189,-3.879104 0.323059,-4.313383 1.518361,-4.313383 0.979732,0 1.16002,0.210298 0.685818,0.8 -0.943302,1.173063 -0.804435,6.339232 0.213734,7.951463 1.125274,1.781824 3.44889,2.562841 4.167156,1.400659 0.360396,-0.583136 -0.01197,-1.300589 -1.143136,-2.20256 -1.665607,-1.328109 -1.608999,-2.829562 0.106681,-2.829562 0.525933,0 0.740743,0.464883 0.550663,1.191738 -0.450132,1.721325 1.518515,2.284672 2.377171,0.680256 0.711097,-1.328698 0.28976,-3.791994 -0.648602,-3.791994 -0.295161,0 -0.203757,-0.717753 0.20313,-1.595008 0.40688,-0.877254 1.243782,-1.597254 1.859782,-1.6 0.961575,-0.0045 1.12,0.635341 1.12,4.521933 0,3.966048 0.138765,4.500474 1.12,4.313389 0.911168,-0.173728 1.155283,-1.017811 1.309242,-4.526931 l 0.189241,-4.313383 2.370759,0.0094 c 2.327616,0.0093 2.341645,0.02406 0.770758,0.814829 -3.113286,1.567142 -1.933702,6.215738 1.577242,6.215738 0.817197,0 1.651584,0.432 1.854201,0.96 0.202612,0.528 0.809421,0.96 1.348474,0.96 0.786771,0 0.980083,-0.883636 0.980083,-4.48 0,-4.053332 0.121907,-4.48 1.28,-4.48 1.15936,0 1.28,0.426668 1.28,4.526924 0,3.966048 0.138765,4.500474 1.12,4.313389 0.911168,-0.173728 1.155283,-1.017811 1.309242,-4.526931 l 0.189241,-4.313357 3.010759,0.0361 3.010761,0.0361 -2.240003,0.763879 c -1.942246,0.662342 -2.265773,1.07232 -2.433888,3.084275 -0.243993,2.920045 1.265779,4.622393 3.773127,4.254393 1.312064,-0.192569 1.852024,0.04269 2.077564,0.905146 0.205,0.783917 0.65617,1.03049 1.37843,0.753331 0.85178,-0.326854 0.98429,-0.888563 0.64113,-2.717766 -0.23791,-1.26816 -0.56742,-2.523949 -0.73223,-2.790624 -0.54626,-0.883815 -2.784133,-0.501914 -2.784133,0.475174 0,0.528 -0.432,0.96 -0.96,0.96 -0.528,0 -0.96,-0.557753 -0.96,-1.239449 0,-0.930554 0.518387,-1.289434 2.08,-1.44 1.574783,-0.15184 2.128423,-0.540756 2.279353,-1.601197 0.12381,-0.869856 0.72766,-1.476192 1.59347,-1.6 0.76675,-0.109645 1.49016,-0.703354 1.60757,-1.319354 0.201,-1.054598 -1.65793,-1.12 -31.833468,-1.12 -28.351391,0 -32.046925,0.113018 -32.046925,0.980083 0,0.539053 0.414795,1.139264 0.921766,1.333805 0.728022,0.279367 0.775504,0.67472 0.225906,1.88096 -0.526128,1.154727 -0.492197,1.772647 0.13911,2.533325 0.605883,0.730042 0.642338,1.198707 0.132867,1.708179 -0.50947,0.509472 -0.142062,1.376832 1.339124,3.161338 2.070092,2.494009 3.231212,3.023501 3.978554,1.814278 z m -3.857327,-5.091968 c -0.231391,-0.3744 0.432611,-0.64 1.6,-0.64 1.167389,0 1.831392,0.2656 1.6,0.64 -0.511794,0.828103 -2.688205,0.828103 -3.2,0 z m 152.320003,2.56 c 0.51445,-0.832409 2.88,-0.832409 2.88,0 0,0.352 0.576,0.64 1.28,0.64 1.55149,0 1.55849,-0.393299 0.10829,-6.08 -0.99956,-3.919571 -1.34073,-4.503667 -2.72735,-4.66919 -1.47767,-0.176397 -1.67594,0.156704 -2.93147,4.924768 -0.74063,2.812672 -1.18675,5.273811 -0.99137,5.46919 0.57325,0.573255 1.9536,0.408224 2.3819,-0.284768 z m 11.04405,-0.752806 0.36424,-1.392807 0.51523,1.392807 c 0.73524,1.987539 4.21182,1.954829 5.01653,-0.04717 l 0.57881,-1.44 0.0406,1.44 c 0.0456,1.616512 0.75767,1.802381 2.56976,0.670713 0.90896,-0.567654 1.61959,-0.58688 2.71132,-0.07336 0.81372,0.382758 2.41549,0.73351 3.55949,0.779449 1.90534,0.07651 2.08,-0.07855 2.08,-1.846643 0,-2.411571 1.12312,-2.55273 1.39749,-0.175635 0.12214,1.058208 0.647,1.838822 1.32251,1.966925 0.99609,0.188902 1.12,-0.394631 1.12,-5.274528 -1e-5,-5.060282 -0.0995,-5.486951 -1.28001,-5.486951 -0.93867,0 -1.28,0.426669 -1.28,1.6 0,0.88 -0.288,1.6 -0.64,1.6 -0.352,0 -0.64,-0.72 -0.64,-1.6 0,-1.173331 -0.34133,-1.6 -1.28,-1.6 -1.16431,0 -1.28587,0.448301 -1.34491,4.96 l -0.0649,4.96 -1.36909,-4.987648 c -1.26929,-4.624064 -1.4843,-4.973971 -2.94948,-4.8 -1.35212,0.160544 -1.71095,0.724717 -2.48436,3.906055 -0.67728,2.785939 -1.13818,3.628524 -1.83795,3.36 -0.5137,-0.197127 -1.34244,-0.358407 -1.84165,-0.358407 -0.67352,0 -0.90765,-0.908 -0.90765,-3.52 0,-3.093331 -0.15515,-3.52 -1.28,-3.52 -1.13442,0 -1.28,0.426669 -1.28,3.751251 0,3.656231 -0.0405,3.743501 -1.6,3.445389 -1.47065,-0.281133 -1.6,-0.584397 -1.6,-3.751251 0,-3.01872 -0.15851,-3.445389 -1.28,-3.445389 -1.17961,0 -1.28,0.426669 -1.28,5.44 v 5.44 h 2.29991 c 1.82377,0 2.37533,-0.288352 2.66414,-1.392806 z m 24.39985,0.651801 c 0.71767,-0.448192 1.66262,-0.531008 2.39132,-0.209574 2.12032,0.93527 7.01831,0.966534 8.26796,0.05274 0.86811,-0.634778 1.21001,-1.77961 1.28521,-4.30352 0.14061,-4.719002 -0.46284,-5.678637 -3.57091,-5.678637 h -2.53748 l -0.0565,4.96 -0.0565,4.96 -1.34734,-4.96 c -1.17689,-4.332467 -1.53098,-4.96 -2.79872,-4.96 -1.19127,0 -1.62436,0.58249 -2.4166,3.250253 -2.17197,7.31385 -2.00712,8.666515 0.83954,6.888742 z m 14.7961,0.101005 c 0,-0.820973 2.36221,-0.837805 2.86737,-0.02042 0.48861,0.790599 4.6226,0.744013 6.80961,-0.07674 5.00429,-1.878048 3.40077,-10.142848 -1.96789,-10.142848 h -1.94909 l -0.0577,4.64 c -0.0619,4.973248 -0.0392,4.999648 -1.92609,-2.24 -0.49931,-1.915725 -0.92925,-2.4 -2.13074,-2.4 -1.33682,0 -1.65628,0.559815 -2.85534,5.003584 -1.64322,6.089895 -1.64068,5.876416 -0.0701,5.876416 0.704,0 1.28,-0.288 1.28,-0.64 z m 9.08477,-4.8 c -0.0131,-1.056 0.11971,-1.565478 0.29503,-1.132179 0.17531,0.433299 0.18598,1.297299 0.0237,1.92 -0.16226,0.622701 -0.3057,0.268179 -0.31874,-0.787821 z"
         id="path289" />
      <path
         style="fill:#efb446;stroke-width:0.64"
         d="m 28.514887,96.438869 c 0.44,-0.177542 1.16,-0.177542 1.6,0 0.44,0.177542 0.08,0.32281 -0.8,0.32281 -0.88,0 -1.24,-0.145268 -0.8,-0.32281 z m -5.426667,-0.60281 c 0.212667,-0.212665 0.764667,-0.235398 1.226667,-0.0505 0.510549,0.204301 0.358897,0.355956 -0.386667,0.386663 -0.674666,0.02778 -1.052666,-0.123475 -0.84,-0.336141 z m 45.825029,-1.373331 c -0.796077,-1.015078 -0.77344,-1.037715 0.241638,-0.241638 0.616,0.483104 1.12,0.987104 1.12,1.12 0,0.526745 -0.525561,0.187718 -1.361638,-0.878362 z M 59.56822,93.916059 c 0.212667,-0.212665 0.764667,-0.235398 1.226667,-0.0505 0.510549,0.204301 0.358897,0.355956 -0.386667,0.386663 -0.674666,0.02778 -1.052666,-0.123475 -0.84,-0.336141 z m 4.48,0 c 0.212667,-0.212665 0.764667,-0.235398 1.226667,-0.0505 0.510549,0.204301 0.358897,0.355956 -0.386667,0.386663 -0.674666,0.02778 -1.052666,-0.123475 -0.84,-0.336141 z m 14.038373,-0.01158 c 0.853805,-0.253964 1.143859,-1.257088 1.331059,-4.603251 l 0.23936,-4.278521 -0.05107,4.473382 c -0.04544,3.984115 -0.191059,4.48759 -1.331059,4.603251 -0.942618,0.09564 -0.99225,0.04429 -0.188295,-0.194861 z m 9.001625,0.01158 c 0.212666,-0.212665 0.764666,-0.235398 1.226669,-0.0505 0.510547,0.204301 0.358899,0.355956 -0.386669,0.386663 -0.674662,0.02778 -1.052665,-0.123475 -0.84,-0.336141 z m 4.48,0 c 0.212666,-0.212665 0.764666,-0.235398 1.226669,-0.0505 0.510547,0.204301 0.358899,0.355956 -0.386669,0.386663 -0.674662,0.02778 -1.052665,-0.123475 -0.84,-0.336141 z m 102.645552,-0.09333 c -0.16316,-0.264 0.36834,-0.48 1.18112,-0.48 0.81277,0 1.34427,0.216 1.18111,0.48 -0.38377,0.620947 -1.97846,0.620947 -2.36223,0 z m 5.82112,0.05613 c 0.44,-0.177542 1.16,-0.177542 1.6,0 0.44,0.177543 0.08,0.32281 -0.8,0.32281 -0.88,0 -1.24,-0.145267 -0.8,-0.32281 z m 2.72,0.171085 c 0,-0.139034 1.12777,-0.360333 2.50616,-0.491782 1.37839,-0.13145 2.3694,-0.01773 2.20223,0.25278 -0.30416,0.492154 -4.70839,0.715712 -4.70839,0.239015 z m 7.2,-0.188397 c 0.616,-0.160973 1.624,-0.160973 2.24,0 0.616,0.160979 0.112,0.292691 -1.12,0.292691 -1.232,0 -1.736,-0.131712 -1.12,-0.292691 z m 4.49333,0.05453 c 0.21266,-0.212665 0.76466,-0.235398 1.22667,-0.0505 0.51054,0.204301 0.3589,0.355955 -0.38667,0.386663 -0.67466,0.02778 -1.05267,-0.123476 -0.84,-0.336141 z m 6.50269,-0.228461 c 1.12518,-0.403289 4.20398,-0.161888 4.20398,0.329626 0,0.112902 -1.224,0.184602 -2.72,0.159328 -1.81204,-0.03059 -2.30741,-0.193824 -1.48398,-0.488954 z m 6.29731,0.228461 c 0.21266,-0.212665 0.76466,-0.235398 1.22667,-0.0505 0.51054,0.204301 0.3589,0.355955 -0.38667,0.386663 -0.67466,0.02778 -1.05267,-0.123476 -0.84,-0.336141 z m 2.56,0 c 0.21266,-0.212665 0.76466,-0.235398 1.22667,-0.0505 0.51054,0.204301 0.3589,0.355955 -0.38667,0.386663 -0.67466,0.02778 -1.05267,-0.123476 -0.84,-0.336141 z m 5.36555,-0.09333 c -0.16316,-0.264 0.36834,-0.48 1.18112,-0.48 0.81277,0 1.34427,0.216 1.18111,0.48 -0.38377,0.620947 -1.97846,0.620947 -2.36223,0 z m 3.88894,0.06022 c 0.4333,-0.175309 1.2973,-0.185978 1.92,-0.02374 0.6227,0.162266 0.26818,0.305702 -0.78782,0.318746 -1.056,0.01306 -1.56548,-0.119719 -1.13218,-0.295034 z m 5.77218,-0.0038 c 0.44,-0.177542 1.16,-0.177542 1.6,0 0.44,0.177542 0.08,0.32281 -0.8,0.32281 -0.88,0 -1.24,-0.145268 -0.8,-0.32281 z m 4.98418,-0.177024 c -0.168,-0.271814 0.36312,-0.366406 1.18026,-0.210202 1.44317,0.275879 1.4895,0.140845 1.61806,-4.716544 0.17614,-6.654828 0.6975,-6.941516 0.6975,-0.383552 0,4.87321 0.0859,5.197088 1.44,5.432621 0.792,0.137754 0.0742,0.277779 -1.5952,0.311175 -1.66935,0.03341 -3.17264,-0.161677 -3.34062,-0.433498 z m -194.5504,-1.90471 c -0.206064,-0.333421 -0.101865,-0.774816 0.231555,-0.980877 0.333419,-0.206067 0.774815,-0.101869 0.980879,0.231552 0.206064,0.333421 0.101865,0.774816 -0.231554,0.980877 -0.333419,0.206067 -0.774815,0.101868 -0.98088,-0.231552 z M 206.59489,91.10277 c -1.48945,-0.477005 -1.50311,-0.516819 -0.19778,-0.576205 0.77123,-0.03507 1.58023,0.224205 1.79778,0.576205 0.21755,0.352 0.30654,0.61129 0.19777,0.576205 -0.10877,-0.03508 -0.91777,-0.294381 -1.79777,-0.576205 z m 5.76,0 c -1.31811,-0.422131 -1.37449,-0.52192 -0.32,-0.566406 0.704,-0.0297 1.712,0.225184 2.24,0.566406 1.12137,0.724685 0.34283,0.724685 -1.92,0 z m 31.41053,-0.266669 c -0.0278,-0.674662 0.12347,-1.052665 0.33614,-0.84 0.21266,0.212666 0.23539,0.764666 0.0505,1.226669 -0.2043,0.510547 -0.35595,0.358899 -0.38666,-0.386669 z m 11.46947,-2.293331 c 0,-1.056 0.23812,-1.92 0.52916,-1.92 0.29103,0 0.40234,0.864 0.24736,1.92 -0.36225,2.468115 -0.77652,2.468115 -0.77652,0 z m -22.03886,0.452397 c 0.24034,-0.631181 0.5982,-0.986381 0.79525,-0.789331 0.19705,0.197049 4.1e-4,0.713465 -0.43698,1.147603 -0.63207,0.627366 -0.70558,0.553856 -0.35827,-0.358272 z m 23.36939,-0.07907 c -0.0278,-0.674662 0.12347,-1.052665 0.33614,-0.84 0.21266,0.212666 0.23539,0.764666 0.0505,1.226669 -0.2043,0.510547 -0.35595,0.358899 -0.38666,-0.386669 z m -156.40989,-0.78789 c 0.77036,-0.167303 1.51866,-0.790477 1.6629,-1.384832 0.18303,-0.754176 0.24325,-0.693952 0.19936,0.199353 -0.0438,0.891309 -0.54877,1.311834 -1.6629,1.384832 -1.332476,0.08731 -1.365808,0.05395 -0.19936,-0.199353 z M 74.165415,86.356059 c -0.02778,-0.674662 0.123469,-1.052665 0.336141,-0.84 0.212666,0.212666 0.235398,0.764666 0.0505,1.226669 -0.204301,0.510547 -0.355955,0.358899 -0.386662,-0.386669 z m 10.362803,-0.76 c 0.212666,-0.212665 0.764666,-0.235398 1.226669,-0.0505 0.510547,0.204301 0.358899,0.355956 -0.386669,0.386663 -0.674662,0.02778 -1.052665,-0.123475 -0.84,-0.336141 z m -43.002805,-1.8 c -0.02779,-0.674662 0.123474,-1.052665 0.336141,-0.84 0.212666,0.212672 0.235404,0.764672 0.05053,1.226669 -0.204305,0.510547 -0.355957,0.358899 -0.386667,-0.386669 z m 63.360007,0 c -0.0278,-0.674662 0.12346,-1.052665 0.33614,-0.84 0.21266,0.212672 0.23539,0.764672 0.0505,1.226669 -0.2043,0.510547 -0.35595,0.358899 -0.38666,-0.386669 z m 32.0795,-26.348402 c -3.5504,-1.769237 -5.18502,-3.628413 -7.20491,-8.194701 -1.22261,-2.763922 -1.34881,-2.852928 -3.54073,-2.497227 l -2.27294,0.368847 3.64018,-5.690924 c 2.0021,-3.130008 3.84663,-5.91714 4.09897,-6.193627 0.25234,-0.276487 1.73018,0.224044 3.2841,1.112291 3.60443,2.060362 4.20603,2.047183 2.55175,-0.0559 -1.8652,-2.371212 -1.80023,-7.021018 0.13832,-9.899045 3.02363,-4.488993 9.15411,-6.192373 17.45783,-4.850734 3.01838,0.487682 3.2886,0.421299 3.90769,-0.96 0.62436,-1.39306 0.88894,-1.137235 4.32143,4.178506 4.25573,6.590641 4.64963,7.440946 3.47675,7.505048 -0.47766,0.02611 -2.02047,0.560226 -3.42847,1.186935 l -2.56,1.13947 3.03837,0.06967 c 10.07327,0.230992 13.78143,10.556887 6.77696,18.871404 -2.49841,2.965683 -2.55042,3.119189 -1.4637,4.32 1.11062,1.227229 1.00971,1.245052 -7.04936,1.245052 h -8.17612 l 0.27558,-3.809783 c 0.27335,-3.778985 0.26695,-3.7958 -0.79145,-2.08 -1.53178,2.483229 -3.37551,3.966647 -6.16791,4.962544 -3.68108,1.312836 -6.63574,1.1043 -10.31234,-0.727832 z m 18.37529,-11.784929 c 0.27296,0 1.01665,0.574983 1.65263,1.27774 1.4723,1.626873 2.88205,0.650484 2.88205,-1.996105 0,-2.881414 -2.1701,-4.622467 -5.24716,-4.209747 -1.3962,0.187269 -2.68921,0.49115 -2.87335,0.675288 -0.18414,0.184139 0.34364,1.735533 1.17285,3.447542 1.0163,2.098279 1.57431,2.736736 1.71217,1.959013 0.11248,-0.634552 0.42785,-1.153731 0.70081,-1.153731 z m -5.99476,0.226545 c 0.86319,-0.931399 1.56944,-2.32722 1.56944,-3.101823 0,-0.774603 1.02186,-2.460548 2.27081,-3.746545 2.3652,-2.435376 2.40238,-2.829122 0.15348,-1.625546 -1.15428,0.617749 -1.28616,0.55384 -0.99054,-0.48 0.18757,-0.655947 0.54851,-1.696631 0.80211,-2.312631 0.38798,-0.942421 0.10232,-1.12 -1.80167,-1.12 -4.30605,0 -5.57667,3.339782 -2.51419,6.608465 l 1.76,1.878504 -3.52,-0.404741 c -3.2563,-0.374419 -3.40088,-0.337009 -1.92992,0.499358 l 1.5901,0.9041 -2.3901,0.448383 c -2.62297,0.492073 -2.93899,1.198609 -1.33089,2.975537 1.56098,1.724865 4.47085,1.484468 6.33137,-0.523061 z"
         id="path287" />
      <path
         style="fill:#30a6d7;stroke-width:0.64"
         d="m 23.394887,95.756507 c -2.178465,-0.227872 -2.4,-0.42656 -2.4,-2.152499 0,-1.063897 0.405637,-2.057107 0.920892,-2.254829 0.50649,-0.194361 1.106313,-1.1976 1.332938,-2.22942 0.327526,-1.491213 2.438403,-4.682906 5.850593,-8.846221 0.495536,-0.604615 3.297285,2.712768 2.982944,3.531923 -0.187095,0.487565 0.16049,1.078598 0.77241,1.313414 1.100616,0.422349 4.780223,7.673773 4.780223,9.420416 0,1.084429 -3.228889,2.032237 -3.796183,1.114336 -0.251179,-0.406419 -0.744911,-0.423692 -1.340708,-0.04691 -0.927901,0.586804 -4.382016,0.643642 -9.103109,0.149799 z m 7.369431,-4.271584 c 1.075565,-0.816217 1.071433,-0.928723 -0.08665,-2.358892 -1.042824,-1.287834 -1.363297,-1.37961 -2.249431,-0.64418 -1.227354,1.018612 -1.361786,3.021684 -0.233354,3.477018 1.196761,0.482906 1.344451,0.455661 2.569431,-0.473946 z m 2.870569,-44.326055 c 0.44,-0.177543 1.16,-0.177543 1.6,0 0.44,0.177545 0.08,0.322807 -0.8,0.322807 -0.88,0 -1.24,-0.145262 -0.8,-0.322807 z m -7.929282,-5.97614 c 0,-3.344 0.107868,-4.712 0.239707,-3.04 0.13184,1.672 0.13184,4.408 0,6.08 -0.131839,1.672 -0.239707,0.304 -0.239707,-3.04 z m 23.932642,4.16 c -0.168223,-0.88 -0.0578,-1.6 0.24539,-1.6 0.303187,0 0.55125,0.72 0.55125,1.6 0,2.054025 -0.403989,2.054025 -0.79664,0 z m 15.068425,-1.6 c 0,-1.936 0.119978,-2.728 0.266618,-1.76 0.14664,0.968 0.14664,2.552 0,3.52 -0.14664,0.968 -0.266618,0.176 -0.266618,-1.76 z m 31.991262,0.32 c 0.0051,-1.76 0.1291,-2.40404 0.276204,-1.4312 0.147111,0.97284 0.143175,2.41284 -0.0087,3.2 -0.151942,0.78716 -0.2723,-0.0088 -0.2675,-1.7688 z m 97.375496,2.042742 c -0.17671,-0.460492 -0.2296,-4.276492 -0.11754,-8.48 l 0.20375,-7.642742 0.13763,8.115488 c 0.13323,7.856757 0.18352,8.124329 1.57762,8.392843 l 1.44,0.277356 -1.46009,0.08716 c -0.80305,0.04794 -1.60466,-0.28961 -1.78137,-0.750102 z m 6.39376,-0.01624 c -0.18013,-0.469424 -0.22971,-3.277424 -0.11018,-6.24 l 0.21734,-5.386505 0.13027,5.875488 c 0.12273,5.535839 0.21351,5.89152 1.57027,6.152843 l 1.44,0.277356 -1.46009,0.08716 c -0.80305,0.04794 -1.60747,-0.296917 -1.78761,-0.766342 z m 8.50048,0.437385 c 1.26894,-0.274646 1.43679,-0.774069 1.64845,-4.904834 l 0.23565,-4.599056 -0.0484,4.8 c -0.047,4.651303 -0.098,4.803248 -1.64844,4.904835 -1.35658,0.08889 -1.38507,0.05832 -0.18722,-0.200947 z m 12.18722,-0.0078 c 0.44,-0.177543 1.16,-0.177543 1.6,0 0.44,0.177545 0.08,0.322807 -0.8,0.322807 -0.88,0 -1.24,-0.145262 -0.8,-0.322807 z m 7.01653,0.0073 c 1.31605,-0.284548 1.4324,-0.723253 1.64023,-6.184835 l 0.22369,-5.878563 -0.0402,6.08 c -0.0398,6.019079 -0.0563,6.08105 -1.64023,6.184835 -1.36398,0.08937 -1.39104,0.05965 -0.18347,-0.201437 z m 10.80061,-0.130945 c -0.18613,-0.301152 0.37288,-0.411577 1.24222,-0.245391 0.86935,0.166186 1.58064,0.412583 1.58064,0.547547 0,0.4952 -2.49513,0.228124 -2.82286,-0.302156 z m 7.14286,0.123687 c 0.44,-0.177543 1.16,-0.177543 1.6,0 0.44,0.177545 0.08,0.322807 -0.8,0.322807 -0.88,0 -1.24,-0.145262 -0.8,-0.322807 z m 7.65168,0.0079 c 1.25287,-0.271252 1.43863,-0.787073 1.65107,-4.584836 l 0.23937,-4.279196 -0.0511,4.48 c -0.0491,4.309185 -0.11206,4.483998 -1.65106,4.584835 -1.35441,0.08874 -1.38331,0.05792 -0.18831,-0.200802 z m 11.85685,-0.04133 c 0.9617,-0.146031 2.6897,-0.148971 3.84,-0.0065 1.15031,0.142439 0.36347,0.26192 -1.74853,0.265512 -2.112,0.0036 -3.05316,-0.112949 -2.09147,-0.25898 z m 18.78861,-0.09025 c -0.18613,-0.301151 0.37288,-0.411576 1.24222,-0.24539 0.86935,0.166189 1.58064,0.412586 1.58064,0.54755 0,0.4952 -2.49513,0.228124 -2.82286,-0.302156 z m 7.75212,0.131897 c 1.19062,-0.257948 1.44628,-0.820364 1.64775,-3.624835 l 0.23847,-3.319511 -0.0478,3.52 c -0.0445,3.286063 -0.15407,3.526967 -1.64773,3.624835 -1.34962,0.08843 -1.37947,0.05706 -0.19074,-0.200485 z m 4.95075,-0.417775 c -0.19399,-0.505532 -0.24563,-2.46882 -0.11475,-4.362861 l 0.23796,-3.44371 0.11839,4 c 0.11208,3.78706 0.20194,4 1.68785,4 1.45659,0 1.58645,-0.264647 1.80568,-3.68 l 0.23622,-3.68 -0.0457,3.84 c -0.044,3.702276 -0.10894,3.847276 -1.80933,4.042862 -1.0922,0.125629 -1.89792,-0.14707 -2.11634,-0.716288 z m 7.23999,0.409569 c 0.44,-0.177543 1.16,-0.177543 1.6,0 0.44,0.177545 0.08,0.322807 -0.8,0.322807 -0.88,0 -1.24,-0.145262 -0.8,-0.322807 z m 7.02782,0.004 c 0.4333,-0.17531 1.2973,-0.185982 1.92,-0.02371 0.6227,0.162269 0.26818,0.305705 -0.78782,0.318747 -1.056,0.01304 -1.56548,-0.119721 -1.13218,-0.295032 z m -154.14946,-1.34014 c -0.79608,-1.015076 -0.77344,-1.037712 0.24164,-0.241635 1.06608,0.836076 1.4051,1.361635 0.87836,1.361635 -0.1329,0 -0.6369,-0.504 -1.12,-1.12 z m 18.12641,-1.76 c -0.0131,-1.056 0.11971,-1.565481 0.29503,-1.13218 0.17531,0.433301 0.18598,1.297301 0.0237,1.92 -0.16229,0.622699 -0.30573,0.26818 -0.31877,-0.78782 z m 60.32891,0.27742 c -0.23202,-0.375419 -0.24902,-0.855419 -0.0378,-1.066667 0.21124,-0.211247 0.38408,-0.0692 0.38408,0.315653 0,0.384857 0.504,0.831448 1.12,0.992426 1.00973,0.263872 1.01345,0.299995 0.0378,0.366928 -0.59523,0.04083 -1.27207,-0.232921 -1.50409,-0.60834 z m 45.95965,0.295913 c 0.21266,-0.212666 0.76466,-0.235403 1.22667,-0.05053 0.51054,0.204305 0.3589,0.355957 -0.38667,0.386667 -0.67466,0.02779 -1.05267,-0.123474 -0.84,-0.336141 z M 11.048571,43.060148 c -0.232021,-0.375419 -0.284597,-0.81984 -0.116835,-0.987602 0.167762,-0.167762 0.475562,0.139399 0.684,0.68258 0.432758,1.127749 0.0639,1.326117 -0.567165,0.305022 z M 238.64542,42.836061 c -0.0278,-0.674666 0.12347,-1.052666 0.33614,-0.84 0.21266,0.212667 0.23539,0.764667 0.0505,1.226667 -0.2043,0.510549 -0.35595,0.358897 -0.38666,-0.386667 z m 29.54947,0.465499 c 0.616,-0.160978 1.624,-0.160978 2.24,0 0.616,0.160977 0.112,0.292686 -1.12,0.292686 -1.232,0 -1.736,-0.131709 -1.12,-0.292686 z M 35.394887,42.462728 c -1.043461,-0.44839 -1.080008,-0.558347 -0.197771,-0.595017 0.595227,-0.02474 1.260223,0.243017 1.477771,0.595017 0.454825,0.735923 0.432585,0.735923 -1.28,0 z m 23.067331,-0.595777 c -0.202515,-0.327678 -0.07551,-0.776674 0.28223,-0.997771 0.357742,-0.221096 0.650439,0.047 0.650439,0.595777 0,1.124177 -0.384035,1.289702 -0.932669,0.401994 z m 43.913722,-0.684223 c 0,-0.88 0.14526,-1.24 0.32281,-0.8 0.17754,0.44 0.17754,1.16 0,1.6 -0.17755,0.44 -0.32281,0.08 -0.32281,-0.8 z m 113.94372,-0.32 c -0.0131,-1.056 0.11971,-1.565481 0.29503,-1.13218 0.17531,0.433301 0.18598,1.297301 0.0237,1.92 -0.16229,0.622699 -0.30573,0.26818 -0.31877,-0.78782 z m -166.540561,-2.749755 0.308703,-3.010245 0.217204,2.484339 c 0.119463,1.366386 -0.01946,2.720996 -0.308702,3.010245 -0.289249,0.289249 -0.386991,-0.828703 -0.217205,-2.484339 z m 99.855791,2.818228 c 0,-0.13834 0.432,-0.417301 0.96,-0.619913 0.528,-0.202614 0.96,-0.08943 0.96,0.251527 0,0.340952 -0.432,0.619913 -0.96,0.619913 -0.528,0 -0.96,-0.113187 -0.96,-0.251527 z m -51.666672,-0.77514 c 0.212666,-0.212666 0.764666,-0.235403 1.226669,-0.05053 0.510547,0.204305 0.358899,0.355957 -0.386669,0.386667 -0.674662,0.02779 -1.052665,-0.123474 -0.84,-0.336141 z M 12.034887,39.322645 c 0,-0.319046 0.576,-0.429456 1.28,-0.245356 1.640892,0.429103 1.640892,0.825439 0,0.825439 -0.704,0 -1.28,-0.261037 -1.28,-0.580083 z m 20.836888,-2.31e-4 c -0.19726,-0.319173 0.217743,-0.429583 0.922229,-0.245356 1.494392,0.390792 1.683294,0.82567 0.358654,0.82567 -0.507226,0 -1.083624,-0.261142 -1.280883,-0.580314 z m 8.933023,-0.715721 c 0.160146,-0.259121 1.006714,-0.607914 1.881264,-0.775095 0.874549,-0.167181 1.459061,-0.09196 1.298915,0.167165 -0.160146,0.259122 -1.006715,0.607915 -1.881264,0.775095 -0.87455,0.167181 -1.459061,0.09196 -1.298915,-0.167165 z m 196.790092,0.122702 c 0,-0.410667 -0.792,-0.785887 -1.76,-0.833823 -1.61547,-0.08 -1.63568,-0.110729 -0.24619,-0.374186 1.55719,-0.295253 3.2222,0.738663 2.44352,1.517342 -0.24053,0.240533 -0.43733,0.101333 -0.43733,-0.309333 z M 47.97594,36.702728 c 0,-0.88 0.145263,-1.24 0.322807,-0.8 0.177544,0.44 0.177544,1.16 0,1.6 -0.177544,0.44 -0.322807,0.08 -0.322807,-0.8 z m 13.458454,0.831933 c 1.64973,-0.142317 3.117462,-0.603722 3.261627,-1.025345 0.144165,-0.421623 0.231797,-0.334588 0.194736,0.193412 -0.04959,0.706551 -0.910695,0.977252 -3.261626,1.025345 l -3.194244,0.06535 z m 219.880496,0.02421 c 0.44,-0.177543 1.16,-0.177543 1.6,0 0.44,0.177545 0.08,0.322807 -0.8,0.322807 -0.88,0 -1.24,-0.145262 -0.8,-0.322807 z M 96.565415,36.436061 c -0.02778,-0.674666 0.123469,-1.052666 0.336141,-0.84 0.212666,0.212667 0.235398,0.764667 0.0505,1.226667 -0.204301,0.510549 -0.355955,0.358897 -0.386662,-0.386667 z m -5.330528,-0.157193 c 0.44,-0.177543 1.16,-0.177543 1.6,0 0.44,0.177545 0.08,0.322807 -0.8,0.322807 -0.88,0 -1.24,-0.145262 -0.8,-0.322807 z M 8.4606748,33.502728 c 0.055286,-0.768741 1.302471,-0.996394 6.2600852,-1.142674 5.225442,-0.154183 6.232289,-0.353822 6.455487,-1.28 0.191712,-0.795526 0.247143,-0.745285 0.201541,0.182674 -0.0577,1.174201 -0.575156,1.295098 -6.260338,1.462663 -4.148434,0.12227 -6.2847832,0.439666 -6.461626,0.96 -0.1453043,0.427535 -0.2331214,0.345337 -0.1951492,-0.182663 z m 65.0647402,0.373333 c -0.02778,-0.674666 0.123469,-1.052666 0.336141,-0.84 0.212666,0.212667 0.235398,0.764667 0.0505,1.226667 -0.204301,0.510549 -0.355955,0.358897 -0.386662,-0.386667 z m 31.309475,0.07139 c 0,-0.911049 -1.1544,-1.074537 -8.800003,-1.246285 l -8.8,-0.197679 8.820083,-0.140381 c 7.44624,-0.118516 8.87912,0.01345 9.19907,0.84722 0.20844,0.543182 0.19939,1.167182 -0.0201,1.386667 -0.21948,0.219485 -0.39905,-0.07281 -0.39905,-0.649542 z m 124.92477,-2.044727 c -0.0131,-1.056 0.11971,-1.565481 0.29503,-1.13218 0.17531,0.433301 0.18598,1.297301 0.0237,1.92 -0.16229,0.622699 -0.30573,0.26818 -0.31877,-0.78782 z M 57.982887,32.386959 c 2.567401,-0.12179 6.599401,-0.120974 8.96,0.0018 2.360602,0.122789 0.26,0.222435 -4.668,0.221437 -4.928,-0.001 -6.859399,-0.101462 -4.292,-0.223253 z m -40.348,-5.390898 c -0.616,-0.645333 -0.867264,-1.173333 -0.558365,-1.173333 0.645484,0 2.307634,1.851001 1.929566,2.1488 -0.138161,0.108826 -0.755201,-0.330133 -1.371201,-0.975467 z m 59.509331,0.667251 c 0.434138,-0.437388 0.950554,-0.63403 1.147604,-0.436982 0.197049,0.197048 -0.158151,0.554911 -0.789332,0.795251 -0.912128,0.347318 -0.985638,0.273805 -0.358272,-0.358269 z m 10.329031,-1.040584 c -0.796077,-1.015076 -0.77344,-1.037712 0.241638,-0.241635 1.06608,0.836076 1.405107,1.361635 0.878362,1.361635 -0.132896,0 -0.636896,-0.504 -1.12,-1.12 z m -63.105029,0.09333 c 0.212667,-0.212666 0.764667,-0.235403 1.226667,-0.05053 0.510549,0.204305 0.358897,0.355957 -0.386667,0.386667 -0.674666,0.02779 -1.052666,-0.123474 -0.84,-0.336141 z m 3.84,0 c 0.212667,-0.212666 0.764667,-0.235403 1.226667,-0.05053 0.510549,0.204305 0.358897,0.355957 -0.386667,0.386667 -0.674666,0.02779 -1.052666,-0.123474 -0.84,-0.336141 z m 118.4,-7.04 c 0.21266,-0.212666 0.76466,-0.235403 1.22667,-0.05053 0.51054,0.204305 0.3589,0.355957 -0.38667,0.386667 -0.67466,0.02779 -1.05267,-0.123474 -0.84,-0.336141 z m 6.06667,-0.03719 c 0.44,-0.177544 1.16,-0.177544 1.6,0 0.44,0.177544 0.08,0.322807 -0.8,0.322807 -0.88,0 -1.24,-0.145263 -0.8,-0.322807 z"
         id="path285" />
      <path
         style="fill:#4e6c72;stroke-width:0.64"
         d="m 42.835512,92.799874 c -0.54424,-0.65577 -0.435047,-1.117203 0.454969,-1.922656 0.961415,-0.870074 1.171073,-0.893831 1.171073,-0.132704 0,0.509907 -0.168,0.908998 -0.373334,0.886867 -1.174018,-0.126522 -1.39898,0.221094 -0.693333,1.071347 0.438201,0.528 0.652729,0.96 0.476729,0.96 -0.176,0 -0.642247,-0.388281 -1.036104,-0.862854 z M 58.61837,91.742728 c -0.154987,-1.056 -0.04367,-1.92 0.247361,-1.92 0.291036,0 0.529156,0.864 0.529156,1.92 0,2.468115 -0.414274,2.468115 -0.776517,0 z m 7.301868,-2.4 -0.125351,-4.64 h 3.2 c 1.829837,0 3.2,0.290823 3.2,0.679213 0,0.441222 -0.998336,0.529504 -2.849209,0.251949 l -2.849204,-0.427264 -0.225443,4.388051 -0.225442,4.388051 z m 19.849414,3.335655 c -0.681818,-0.773056 -0.654016,-0.935655 0.16,-0.935655 0.541882,0 0.985235,0.432 0.985235,0.96 0,1.167149 -0.09616,1.165101 -1.145235,-0.02432 z m 7.670586,-3.335655 -0.125351,-4.64 3.36,0.11536 3.360003,0.11536 -3.011536,0.238541 -3.011532,0.238547 -0.223117,4.286093 -0.223117,4.286099 z m 4.52798,3.933331 c 0.212666,-0.212665 0.764666,-0.235398 1.226669,-0.0505 0.510547,0.204301 0.358899,0.355956 -0.386669,0.386663 -0.674662,0.02778 -1.052665,-0.123475 -0.84,-0.336141 z M 208.64368,88.702728 c -0.11943,-4.896262 -0.0358,-5.28 1.15121,-5.28 1.15637,0 1.26831,0.38633 1.15899,4 l -0.12102,4 -0.23093,-3.68 c -0.33435,-5.328243 -1.35642,-4.516333 -1.61132,1.28 l -0.21813,4.96 z m 7.97009,4.16 c 0.38479,-0.622598 2.61744,-0.622598 3.00223,0 0.16316,0.264 -0.51234,0.48 -1.50111,0.48 -0.98878,0 -1.66428,-0.216 -1.50112,-0.48 z m 6.10991,-4.16 c -0.11943,-4.896262 -0.0358,-5.28 1.15121,-5.28 1.0371,0 1.2618,0.394701 1.18411,2.08 -0.0893,1.935955 -0.11436,1.958119 -0.36251,0.32 -0.52086,-3.438272 -1.411,-1.686329 -1.62588,3.2 l -0.21813,4.96 z m 1.93969,3.04 c 0,-1.232 0.13171,-1.736 0.29269,-1.12 0.16097,0.616 0.16097,1.624 0,2.24 -0.16098,0.616 -0.29269,0.112 -0.29269,-1.12 z m 1.92,0 c 0,-1.232 0.13171,-1.736 0.29269,-1.12 0.16097,0.616 0.16097,1.624 0,2.24 -0.16098,0.616 -0.29269,0.112 -0.29269,-1.12 z m 5.5176,1.11792 c 0.32245,-0.322457 1.2675,-0.479129 2.1001,-0.34816 1.28108,0.201523 1.19094,0.291667 -0.58629,0.586298 -1.27182,0.210841 -1.86887,0.116921 -1.51381,-0.238138 z m 6.1336,-4.31792 0.0403,-4.8 1.92,-0.05965 c 1.75664,-0.05459 1.77249,-0.0377 0.18622,0.198592 -1.67464,0.249453 -1.7415,0.4152 -1.96032,4.859667 l -0.22655,4.601408 0.0403,-4.8 z m -41.41186,4.060199 c 0.4333,-0.175309 1.2973,-0.185978 1.92,-0.02374 0.6227,0.162265 0.26818,0.305702 -0.78782,0.318745 -1.056,0.01306 -1.56548,-0.119718 -1.13218,-0.295033 z m 50.56,0 c 0.4333,-0.175309 1.2973,-0.185978 1.92,-0.02374 0.6227,0.162265 0.26818,0.305702 -0.78782,0.318745 -1.056,0.01306 -1.56548,-0.119718 -1.13218,-0.295033 z M 49.845413,90.836059 c -0.02779,-0.674662 0.123474,-1.052665 0.336141,-0.84 0.212666,0.212666 0.235404,0.764666 0.05053,1.226669 -0.204305,0.510547 -0.355957,0.358899 -0.386667,-0.386669 z m -2.930526,-0.373331 c -1.043461,-0.44839 -1.080008,-0.558349 -0.197771,-0.595014 0.595227,-0.02474 1.260223,0.243014 1.477771,0.595014 0.454825,0.735923 0.432585,0.735923 -1.28,0 z M 204.79025,87.789653 c -0.0909,-2.861504 -0.35322,-3.695226 -1.23536,-3.925754 -1.04966,-0.274304 -1.0484,-0.29735 0.0201,-0.366931 1.50005,-0.09768 1.86804,1.02649 1.57356,4.807079 l -0.24292,3.118681 -0.11536,-3.633075 z M 83.501556,90.036059 c -0.234669,-0.234662 -0.426669,-0.724262 -0.426669,-1.088 0,-0.401024 0.298093,-0.363238 0.757331,0.096 0.416538,0.416538 0.608538,0.906138 0.426669,1.088 -0.181869,0.181869 -0.522669,0.138669 -0.757331,-0.096 z M 197.31942,89.830056 c -0.22422,-0.36279 0.0327,-0.47008 0.60223,-0.251526 1.10874,0.425465 1.31161,0.884198 0.39101,0.884198 -0.33123,0 -0.77819,-0.284704 -0.99324,-0.632672 z m 50.286,-0.487328 c 0.0305,-0.67568 0.17911,-0.801043 0.37466,-0.316013 0.17827,0.442196 0.63203,0.613696 1.00836,0.381114 0.40441,-0.249939 0.49747,-0.12071 0.22756,0.316013 -0.69018,1.116729 -1.66772,0.885414 -1.61058,-0.381114 z M 86.325415,88.916059 c -0.02778,-0.674662 0.123469,-1.052665 0.336141,-0.84 0.212666,0.212666 0.235398,0.764666 0.0505,1.226669 -0.204301,0.510547 -0.355955,0.358899 -0.386662,-0.386669 z m 172.800005,0 c -0.0278,-0.674662 0.12347,-1.052665 0.33614,-0.84 0.21266,0.212666 0.23539,0.764666 0.0505,1.226669 -0.2043,0.510547 -0.35595,0.358899 -0.38666,-0.386669 z m -191.360005,-0.64 c -0.02778,-0.674662 0.123469,-1.052665 0.336141,-0.84 0.212666,0.212666 0.235398,0.764666 0.0505,1.226669 -0.204301,0.510547 -0.355955,0.358899 -0.386662,-0.386669 z m 29.858803,0.187252 c 0.434138,-0.437389 0.950554,-0.634029 1.147604,-0.43698 0.197049,0.19705 -0.158151,0.554912 -0.789332,0.795252 -0.912128,0.347315 -0.985638,0.273804 -0.358272,-0.358272 z m 135.210672,0.11719 c 0,-0.331226 0.2847,-0.778189 0.63267,-0.993242 0.36279,-0.224217 0.47008,0.0327 0.25153,0.602228 -0.42547,1.108748 -0.8842,1.311609 -0.8842,0.391014 z M 45.314887,87.902728 c -0.707362,-0.457133 -0.286301,-0.620397 1.6,-0.620397 1.886301,0 2.307363,0.163264 1.6,0.620397 -1.211489,0.782925 -1.988511,0.782925 -3.2,0 z m 24.679475,-0.06387 c 0.195834,-0.31687 1.251072,-0.576128 2.34496,-0.576128 1.093895,0 1.788845,0.200051 1.54434,0.444563 -0.671373,0.671373 -4.298759,0.79408 -3.8893,0.131565 z m 147.480528,0.06387 c 0,-0.352 0.288,-0.64 0.64,-0.64 0.352,0 0.64,0.288 0.64,0.64 0,0.352 -0.288,0.64 -0.64,0.64 -0.352,0 -0.64,-0.288 -0.64,-0.64 z M 58.754887,86.649647 c 0,-1.117549 -0.536457,-1.276666 -4.96,-1.4712 l -4.96,-0.218125 5.28,-0.1288 c 5.239679,-0.127808 5.28,-0.116576 5.28,1.471206 0,0.88 -0.144,1.6 -0.32,1.6 -0.176,0 -0.32,-0.563885 -0.32,-1.253081 z M 226.66225,85.6682 c 0.0581,-1.199565 0.45114,-1.939584 1.05264,-1.981625 0.528,-0.03693 0.61741,0.05037 0.1987,0.194003 -0.41872,0.143603 -0.89241,1.035334 -1.05264,1.981625 -0.26592,1.57042 -0.28325,1.553498 -0.1987,-0.194003 z M 43.074887,85.342728 c -0.991335,-0.42599 -0.666587,-0.560179 1.44,-0.595014 1.496,-0.02474 2.72,0.243014 2.72,0.595014 0,0.766957 -2.375193,0.766957 -4.16,0 z m 39.68,0 -3.84,-0.424819 4,-0.10759 c 2.311725,-0.06221 4,0.162534 4,0.532409 0,0.352 -0.072,0.591584 -0.16,0.53241 -0.088,-0.0592 -1.888,-0.298759 -4,-0.53241 z m 174.958363,-0.48 c -0.79608,-1.015078 -0.77344,-1.037715 0.24164,-0.241638 0.616,0.483104 1.12,0.987104 1.12,1.12 0,0.526745 -0.52556,0.187718 -1.36164,-0.878362 z m -195.918363,0.05614 c 0.44,-0.177542 1.16,-0.177542 1.6,0 0.44,0.177542 0.08,0.32281 -0.8,0.32281 -0.88,0 -1.24,-0.145268 -0.8,-0.32281 z m 12.787821,0.0038 c 0.433299,-0.175309 1.297299,-0.185978 1.92,-0.02374 0.622701,0.162266 0.268179,0.305702 -0.787821,0.318746 -1.056,0.01306 -1.565478,-0.119719 -1.132179,-0.295034 z m 14.732179,-0.0038 c 0.44,-0.177542 1.16,-0.177542 1.6,0 0.44,0.177542 0.08,0.32281 -0.8,0.32281 -0.88,0 -1.24,-0.145268 -0.8,-0.32281 z m 12.787823,0.0038 c 0.4333,-0.175309 1.2973,-0.185978 1.92,-0.02374 0.6227,0.162266 0.26818,0.305702 -0.78782,0.318746 -1.056,0.01306 -1.56548,-0.119719 -1.13218,-0.295034 z m 117.29218,-0.113312 c 0,-0.410669 -0.648,-0.780077 -1.44,-0.820909 -1.18526,-0.06112 -1.22985,-0.128333 -0.25202,-0.380019 1.27661,-0.328589 2.85132,0.788288 2.12935,1.510259 -0.24053,0.240531 -0.43733,0.101331 -0.43733,-0.309331 z m 14.08,-0.746669 c -1.48945,-0.477005 -1.50311,-0.516819 -0.19778,-0.576205 0.77123,-0.03507 1.58023,0.224205 1.79778,0.576205 0.21755,0.352 0.30654,0.61129 0.19777,0.576205 -0.10877,-0.03508 -0.91777,-0.294381 -1.79777,-0.576205 z m 13.96349,-0.139494 c 0.3413,-0.341299 1.15514,-0.507232 1.80853,-0.368736 0.87988,0.186509 0.71895,0.347443 -0.62055,0.62055 -1.16788,0.238112 -1.58871,0.148915 -1.18798,-0.251814 z m -49.96349,-0.284365 c 0.44,-0.177542 1.16,-0.177542 1.6,0 0.44,0.177542 0.08,0.32281 -0.8,0.32281 -0.88,0 -1.24,-0.145268 -0.8,-0.32281 z m 56.30782,0.0038 c 0.4333,-0.175309 1.2973,-0.185978 1.92,-0.02368 0.6227,0.162266 0.26818,0.305702 -0.78782,0.318746 -1.056,0.01306 -1.56548,-0.119719 -1.13218,-0.295034 z M 44.194887,82.956507 c 1.32,-0.138073 3.48,-0.138073 4.8,0 1.32,0.13808 0.24,0.251047 -2.4,0.251047 -2.64,0 -3.72,-0.112967 -2.4,-0.251047 z m 10.24,-0.0045 c 1.672,-0.13184 4.408,-0.13184 6.08,0 1.672,0.13184 0.304,0.239706 -3.04,0.239706 -3.344,0 -4.712,-0.107866 -3.04,-0.239706 z m 13.44,-0.0045 c 2.376,-0.123142 6.264,-0.123142 8.64,0 2.376,0.123143 0.432,0.223892 -4.32,0.223892 -4.752,0 -6.696,-0.100749 -4.32,-0.223892 z m 15.696915,0.0051 c 1.505306,-0.135193 3.809306,-0.133292 5.12,0.0045 1.310695,0.137517 0.07909,0.248135 -2.736915,0.245812 -2.816,-0.0026 -3.88839,-0.114842 -2.383085,-0.250042 z m 8.290906,0.04966 c 0.433299,-0.175308 1.297299,-0.185977 1.92,-0.02368 0.622701,0.162266 0.268179,0.305703 -0.787821,0.318746 -1.056,0.01306 -1.565478,-0.119718 -1.132179,-0.295034 z m 5.789094,-0.04966 c 1.505306,-0.135193 3.809308,-0.133292 5.119998,0.0045 1.3107,0.137517 0.0791,0.248135 -2.73691,0.245812 -2.816003,-0.0026 -3.888393,-0.114842 -2.383088,-0.250042 z M 82.00633,70.782127 c 43.94029,-0.09076 115.65229,-0.09075 159.36,6e-6 43.70771,0.09076 7.75656,0.165018 -79.89144,0.165011 -87.648003,-6e-6 -123.408854,-0.07426 -79.46856,-0.165017 z m 69.54856,-15.199399 c 0.82672,-0.88 1.64712,-1.6 1.82312,-1.6 0.176,0 -0.3564,0.72 -1.18312,1.6 -0.82672,0.88 -1.64713,1.6 -1.82313,1.6 -0.176,0 0.35641,-0.72 1.18313,-1.6 z m 2.28114,-3.067602 c 0.24034,-0.631181 0.5982,-0.986381 0.79525,-0.789333 0.19705,0.197048 4.1e-4,0.713468 -0.43698,1.147602 -0.63207,0.627371 -0.70558,0.553858 -0.35827,-0.358269 z m -25.96114,-5.572398 c -0.57683,-0.372774 -0.65577,-0.624311 -0.19778,-0.630199 0.41923,-0.0054 0.94023,0.278199 1.15778,0.630199 0.49107,0.794576 0.26951,0.794576 -0.96,0 z m 22.4,-3.475487 c 0,-0.503518 -0.648,-1.016142 -1.44,-1.139165 -1.31467,-0.204208 -1.28681,-0.256063 0.32,-0.595763 1.52815,-0.32307 1.76,-0.173007 1.76,1.139165 0,0.831187 -0.144,1.51125 -0.32,1.51125 -0.176,0 -0.32,-0.411969 -0.32,-0.915487 z m 4,-2.725681 c 0.616,-0.160978 1.624,-0.160978 2.24,0 0.616,0.160977 0.112,0.292686 -1.12,0.292686 -1.232,0 -1.736,-0.131709 -1.12,-0.292686 z m -0.16,-3.361061 c 0,-0.372774 0.288,-0.677771 0.64,-0.677771 0.82008,0 0.82008,0.453159 0,0.96 -0.352,0.217548 -0.64,0.09054 -0.64,-0.282229 z m -18.41152,-5.797771 c 0,-1.232 0.13171,-1.736 0.29269,-1.12 0.16097,0.616 0.16097,1.624 0,2.24 -0.16098,0.616 -0.29269,0.112 -0.29269,-1.12 z"
         id="path283" />
      <path
         style="fill:#024da0;stroke-width:0.64"
         d="M 2.4348872,36.702728 V 2.7827282 h 159.0400028 159.04 v 33.9199998 33.92 H 161.47489 2.4348872 Z M 171.65734,58.441585 c 0.34619,-0.33746 -0.0432,-1.076999 -0.96,-1.823183 l -1.54245,-1.255422 1.70265,-1.810126 c 7.57043,-8.048279 5.55734,-18.227981 -3.94362,-19.94195 l -2.87903,-0.519378 2.03577,-0.475537 c 3.6584,-0.854566 3.60495,-1.537449 -0.64445,-8.232717 -3.96175,-6.242047 -5.37036,-7.3908 -6.01937,-4.908948 -0.26352,1.007703 -0.67705,1.232503 -1.70009,0.924206 -3.10128,-0.934586 -9.44848,-1.115099 -12.19273,-0.346759 -5.78972,1.621023 -10.68599,8.056679 -9.73752,12.799015 0.39445,1.972267 -0.0846,2.452963 -1.26659,1.270961 -0.36354,-0.363539 -1.06914,-0.497626 -1.568,-0.29797 -0.96183,0.384944 -8.90702,12.047245 -8.90702,13.074103 0,0.332406 0.97987,0.445362 2.17749,0.251015 2.09597,-0.340128 2.22905,-0.23677 3.55432,2.760237 2.64433,5.980021 7.19627,9.203481 12.96269,9.179541 4.02467,-0.01671 8.06227,-1.693767 9.9958,-4.151851 l 1.3897,-1.766713 -6.4e-4,3.126309 -6.4e-4,3.12631 8.48091,-0.20669 c 4.66449,-0.11368 8.743,-0.462184 9.06335,-0.774453 z m -27.07495,-13.187613 -1.49731,-1.048757 2.4749,-0.861607 c 3.39678,-1.182545 4.71491,-1.106749 4.71491,0.27112 0,2.640359 -3.02114,3.510341 -5.6925,1.639244 z m 12.82263,-0.28695 c -0.8269,-0.669588 -1.72996,-1.077449 -2.00679,-0.906358 -0.27683,0.171091 -0.97347,-0.406453 -1.54809,-1.283431 l -1.04476,-1.594505 h 2.47556 c 2.60114,0 4.59395,1.463009 4.59395,3.372624 0,1.602945 -0.82823,1.740991 -2.46987,0.41167 z m -8.01653,-6.641777 c -2.00573,-3.061133 -1.0904,-4.822517 2.50608,-4.822517 1.49374,0 1.50137,0.03264 0.54301,2.326322 -0.95229,2.279141 -0.94395,2.318984 0.41156,1.964511 1.3294,-0.347644 1.33979,-0.313438 0.26547,0.873679 -1.49136,1.647929 -2.48183,1.55702 -3.72612,-0.341995 z M 17.154887,49.60821 c 0,-0.269215 -0.36,-0.871082 -0.8,-1.337482 -0.641634,-0.680133 -0.625798,-0.911346 0.08,-1.168 1.643189,-0.597523 3.28,-2.714217 3.28,-4.241635 0,-1.999901 -1.42928,-3.10871 -4.695389,-3.642591 l -2.664611,-0.435561 3.04,-0.08011 c 2.794638,-0.07364 3.04,-0.209245 3.04,-1.680107 0,-1.401904 0.277333,-1.6 2.24,-1.6 h 2.24 v 5.76 c 0,5.717333 0.01185,5.76 1.6,5.76 1.588148,0 1.6,-0.04267 1.6,-5.76 v -5.76 l 4.96,0.102424 c 2.728,0.05633 3.953157,0.223864 2.72257,0.372291 -2.871109,0.346298 -3.84257,1.184545 -3.84257,3.31565 0,2.359588 1.101408,3.249635 4.021333,3.249635 1.703663,0 2.401557,0.251611 2.218966,0.8 -0.385242,1.157022 -2.334778,1.37136 -4.062602,0.446657 -1.200826,-0.642663 -1.688311,-0.638387 -2.483772,0.02179 -2.267836,1.882137 3.434967,4.566495 6.768172,3.185836 4.831997,-2.001478 3.941632,-7.190577 -1.342097,-7.82182 -1.914493,-0.228722 -1.79824,-0.282494 0.8,-0.370034 2.806659,-0.09456 3.04,-0.227927 3.04,-1.73749 0,-1.551317 0.155712,-1.625075 3.04,-1.44 3.365969,0.215983 4.283482,1.765846 1.44,2.432449 -3.963792,0.929238 -0.365574,6.402617 4.209104,6.402617 1.764229,0 2.190896,0.249274 2.190896,1.28 0,0.938667 0.426667,1.28 1.6,1.28 1.588148,0 1.6,-0.04267 1.6,-5.76 v -5.76 h 5.76 c 4.693333,0 5.76,0.177778 5.76,0.96 0,0.701265 -0.733082,0.962543 -2.72,0.969435 -4.306304,0.01494 -5.92,1.146314 -5.92,4.150565 0,2.048435 0.299415,2.671473 1.594014,3.3169 2.05875,1.026398 4.078206,-0.170666 4.368496,-2.589496 0.140607,-1.171593 0.580791,-1.687404 1.44,-1.687404 1.058322,0 1.23749,0.463309 1.23749,3.2 0,2.986667 0.106667,3.2 1.6,3.2 1.588147,0 1.6,-0.04267 1.6,-5.76 0,-5.717333 0.01184,-5.76 1.6,-5.76 1.28,0 1.6,-0.32 1.6,-1.6 v -1.6 H 56.576351 42.237815 l -5.570896,-2.673103 c -7.277178,-3.491835 -11.63125,-3.985861 -14.025712,-1.591398 -0.905476,0.905476 -1.64632,2.224981 -1.64632,2.932234 0,1.187437 -0.477876,1.299944 -6.24,1.469092 -5.7522744,0.168858 -6.2399998,0.283221 -6.2399998,1.463175 0,1.079312 0.5518938,1.338903 3.5199998,1.655682 2.773633,0.296024 3.014241,0.397802 1.134754,0.48 -1.769794,0.0774 -2.655748,0.517157 -3.4336063,1.704318 -0.9735535,1.485831 -0.9710231,1.718032 0.035462,3.25412 1.0026413,1.530223 1.0056533,1.740494 0.040218,2.807286 -0.9718541,1.073886 -0.9411193,1.235166 0.4470453,2.345881 0.819856,0.655992 2.150305,2.128451 2.956553,3.27213 1.22703,1.740568 1.667451,1.971552 2.702739,1.417482 0.680259,-0.364064 1.236835,-0.882201 1.236835,-1.151418 z M 12.31721,43.443082 c -1.155831,-0.874226 -1.052953,-0.941062 1.477677,-0.96 2.717652,-0.02034 3.619331,0.777595 1.707657,1.511173 -1.45353,0.557772 -1.797978,0.49817 -3.185334,-0.551173 z m 34.831225,-3.895811 c 0.751549,-0.955439 1.366452,-2.274323 1.366452,-2.930853 0,-0.656529 0.30456,-1.19369 0.676799,-1.19369 0.400437,0 0.596438,1.110674 0.48,2.72 -0.178545,2.467706 -0.368067,2.739558 -2.043251,2.930853 l -1.846451,0.210852 z M 24.194887,31.305857 c 0,-1.413701 2.23318,-1.802207 5.924279,-1.030646 5.895418,1.232337 5.77916,1.927036 -0.324279,1.937717 -4.438598,0.0078 -5.6,-0.180353 -5.6,-0.907071 z m 60.8,9.876871 v -5.76 h 4.48 c 4.521549,0 6.466381,0.915757 2.148691,1.011744 -5.543302,0.123234 -5.356012,7.308256 0.190503,7.308256 1.856857,0 2.140806,0.212217 2.140806,1.6 0,1.28 0.32,1.6 1.6,1.6 1.493331,0 1.6,-0.213333 1.6,-3.2 0,-2.773333 0.170669,-3.2 1.28,-3.2 1.361338,0 1.704113,1.239895 0.6376,2.306398 -0.429862,0.429864 -0.346905,1.046507 0.250746,1.863842 0.742327,1.015198 1.059997,1.082972 1.881257,0.401379 2.90186,-2.408327 1.42201,-7.771619 -2.144355,-7.771619 -1.239065,0 -1.905248,-0.324992 -1.905248,-0.929461 0,-0.693147 1.016992,-0.977905 4.000003,-1.12 3.50981,-0.167189 4,-0.347396 4,-1.470539 0,-1.215552 -0.48534,-1.288863 -9.639337,-1.456019 L 85.876225,32.19069 84.731278,29.006709 c -1.165581,-3.241372 -1.431898,-3.475545 -3.186791,-2.802129 -0.895968,0.343814 -0.897869,0.614542 -0.01907,2.717798 l 0.976026,2.335947 -2.318029,-2.237798 c -2.263322,-2.184988 -2.340134,-2.20778 -3.255002,-0.965764 -0.857254,1.163809 -0.785824,1.381616 0.839559,2.56 l 1.776537,1.287965 -2.874809,0.32 c -2.341479,0.260634 -2.87481,0.557465 -2.87481,1.6 0,1.110817 0.549843,1.328844 4.16,1.649537 2.288,0.203245 3.262842,0.419245 2.166311,0.48 -1.096532,0.06076 -2.752532,0.707366 -3.68,1.436914 -3.471674,2.730818 -1.23321,8.019558 3.17639,7.504761 1.763821,-0.205915 2.177299,-0.03551 2.177299,0.897301 0,0.801586 0.486189,1.151487 1.6,1.151487 1.588147,0 1.6,-0.04267 1.6,-5.76 z m 6.142573,-0.470763 c -0.770413,-0.770409 -0.350054,-1.449237 0.897427,-1.449237 0.704,0 1.28,0.257187 1.28,0.571527 0,0.719386 -1.664717,1.390423 -2.177427,0.87771 z M 80.834887,39.902728 c -0.217549,-0.352 -0.09055,-0.64 0.282227,-0.64 0.372775,0 0.677773,0.288 0.677773,0.64 0,0.820087 -0.453158,0.820087 -0.96,0 z m 116.659123,-1.44 0.17912,-8.16 h -1.93912 -1.93912 v 7.893333 c 0,4.341334 0.20414,8.097483 0.45366,8.346997 0.24952,0.249515 1.04152,0.369515 1.76,0.266667 1.22605,-0.175504 1.31735,-0.688528 1.48546,-8.346997 z m 6.54088,4 c 0.27897,-3.626667 0.4841,-4.16 1.6,-4.16 1.11589,0 1.32102,0.533333 1.6,4.16 0.30194,3.925333 0.41026,4.16 1.92,4.16 1.53871,0 1.60712,-0.173787 1.78596,-4.537039 0.20389,-4.974523 -0.90671,-7.38168 -3.38596,-7.338885 -0.704,0.01215 -2.648,0.02288 -4.32,0.02384 l -3.04,0.0017 v 5.658501 c 0,3.112176 0.20414,5.862651 0.45366,6.112166 0.24952,0.249515 1.04152,0.369515 1.76,0.266667 1.12231,-0.160635 1.35142,-0.773002 1.62634,-4.346978 z m 19.69912,-4 0.17912,-8.16 h -1.93912 c -1.81651,0 -1.93912,0.152825 -1.93912,2.416913 v 2.416912 l -2.48185,-0.236682 c -3.27031,-0.311874 -4.55815,1.413086 -4.55815,6.105261 0,4.83184 1.28122,5.959976 6.54804,5.765635 l 4.01196,-0.148039 z m -6.45033,4.875458 c -0.24683,-0.246835 -0.44879,-1.572822 -0.44879,-2.946637 0,-2.224288 0.1577,-2.475449 1.44,-2.293333 1.2183,0.173027 1.44,0.597285 1.44,2.755747 0,1.794631 -0.29396,2.607847 -0.99121,2.742125 -0.54516,0.104989 -1.19316,-0.01107 -1.44,-0.257902 z m 12.85523,-2.635458 0.18401,-5.92 h -1.94401 -1.94402 v 5.653333 c 0,3.109334 0.20414,5.857483 0.45366,6.106997 0.24952,0.249515 1.04152,0.369515 1.76,0.266667 1.19178,-0.170598 1.32247,-0.706148 1.49036,-6.106997 z m 12.16162,1.031351 c 0.22686,-5.974487 -0.46192,-6.955982 -4.87136,-6.94155 -3.48978,0.01142 -4.93966,0.727037 -4.38763,2.165607 0.27054,0.705002 1.19796,1.024592 2.97326,1.024592 1.41905,0 2.58009,0.288 2.58009,0.64 0,0.352 -0.79992,0.64 -1.7776,0.64 -3.93783,0 -6.02491,3.789457 -3.57691,6.494474 0.82416,0.910688 1.87423,1.124594 4.96,1.010395 l 3.91451,-0.144869 z m -6.26564,1.048649 c 0,-0.533333 0.56889,-0.96 1.28,-0.96 0.71111,0 1.28,0.426667 1.28,0.96 0,0.533333 -0.56889,0.96 -1.28,0.96 -0.71111,0 -1.28,-0.426667 -1.28,-0.96 z m 12.8,-0.32 c 0.27897,-3.626667 0.4841,-4.16 1.6,-4.16 1.11589,0 1.32102,0.533333 1.6,4.16 0.30194,3.925333 0.41026,4.16 1.92,4.16 1.52566,0 1.60765,-0.193272 1.76477,-4.16 0.0972,-2.455061 -0.17224,-4.815746 -0.65753,-5.76 -0.74994,-1.459214 -1.22903,-1.612557 -5.44477,-1.742705 l -4.62247,-0.142705 v 5.636038 c 0,3.099821 0.20414,5.840188 0.45366,6.089702 0.24952,0.249515 1.04152,0.369515 1.76,0.266667 1.12231,-0.160654 1.35142,-0.773021 1.62634,-4.346997 z m 25.61648,2.865081 c 1.39712,-1.264377 1.74903,-5.323574 0.56423,-6.508371 -0.50572,-0.50572 -0.50572,-1.060979 0,-2.005925 1.0509,-1.963624 0.84665,-3.803425 -0.58071,-5.230785 -1.05244,-1.052444 -2.13333,-1.28 -6.08,-1.28 h -4.8 v 7.893333 c 0,4.341334 0.216,8.115687 0.48,8.387452 0.9138,0.940681 9.07687,-0.04337 10.41648,-1.255704 z m -7.05648,-3.86563 c 0,-1.465348 0.22213,-1.619132 2.08,-1.44 1.59421,0.15371 2.12776,0.536869 2.28451,1.640549 0.17931,1.262588 -0.077,1.44 -2.08,1.44 -2.0252,0 -2.28451,-0.186214 -2.28451,-1.640549 z m 0,-6.359451 c 0,-1.511096 0.21034,-1.660818 2.08,-1.480549 1.58648,0.152965 2.08,0.504252 2.08,1.480549 0,0.976298 -0.49352,1.327584 -2.08,1.480549 -1.86966,0.180269 -2.08,0.03055 -2.08,-1.480549 z m 20.34959,6.803091 c 0.23777,-5.915658 -0.60206,-7.127709 -4.92879,-7.11329 -3.43944,0.01146 -4.88383,0.733167 -4.33415,2.165607 0.27054,0.705002 1.19796,1.024592 2.97326,1.024592 1.41905,0 2.58009,0.288 2.58009,0.64 0,0.352 -0.79992,0.64 -1.7776,0.64 -2.62231,0 -4.6224,1.657468 -4.6224,3.830576 0,2.965352 1.42178,3.843417 5.95231,3.676023 l 3.96769,-0.146599 z m -6.7528,1.036909 c 0.40535,-1.230835 3.04321,-1.408107 3.04321,-0.204512 0,0.653454 -0.57781,1.004512 -1.65333,1.004512 -1.03652,0 -1.55505,-0.298461 -1.38988,-0.8 z m 13.15245,-0.64 c 0.16463,-3.758289 0.34807,-4.32 1.41076,-4.32 1.06269,0 1.24612,0.561711 1.41076,4.32 l 0.18924,4.32 h 1.92 c 1.88513,0 1.92345,-0.06588 2.11038,-3.627841 0.11494,-2.190339 -0.18911,-4.53609 -0.76734,-5.92 l -0.95773,-2.292159 h -4.51265 -4.51266 v 5.653333 c 0,3.109334 0.20414,5.857483 0.45366,6.106997 0.24952,0.249515 1.04152,0.369515 1.76,0.266667 1.1452,-0.16393 1.32968,-0.719888 1.49558,-4.506997 z m 12.81131,2.24 c 0.25759,-2.671662 0.94909,-2.629021 2.59465,0.16 0.95751,1.622874 1.76838,2.24 2.94321,2.24 2.05009,0 2.0344,-0.676975 -0.10385,-4.480819 l -1.72542,-3.069465 1.758,-2.304858 1.758,-2.304858 h -1.75755 c -1.03534,0 -2.49516,0.706671 -3.55257,1.719738 l -1.79502,1.719739 v -3.959739 -3.959738 h -1.92 -1.92 v 7.893333 c 0,4.341334 0.20414,8.097483 0.45366,8.346997 0.24952,0.249515 1.04152,0.369515 1.76,0.266667 0.95682,-0.136965 1.35999,-0.743513 1.50689,-2.266997 z m -76.68055,-12.64 c 0,-1.351111 -0.29867,-1.6 -1.92,-1.6 -1.62133,0 -1.92,0.248889 -1.92,1.6 0,1.351111 0.29867,1.6 1.92,1.6 1.62133,0 1.92,-0.248889 1.92,-1.6 z M 18.461545,28.670608 c 0.680179,-0.819566 0.638153,-1.177355 -0.241636,-2.057143 -0.993362,-0.993363 -1.136681,-0.993363 -2.130044,0 -0.879789,0.879788 -0.921815,1.237577 -0.241636,2.057143 1.03595,1.248242 1.577367,1.248242 2.613316,0 z m 69.733342,0.03212 c 0.636237,-0.766621 0.633543,-1.156631 -0.01338,-1.936146 -0.723251,-0.871467 -0.937305,-0.861049 -1.996102,0.09715 -0.901869,0.816179 -1.014432,1.279994 -0.469869,1.936146 0.922144,1.111151 1.495181,1.088698 2.479347,-0.09715 z"
         id="path281" />
      <path
         style="fill:#2d308f;stroke-width:0.64"
         d="m 44.797541,94.359592 c -2.153867,-2.680198 -2.093104,-3.487693 0.196927,-2.617024 1.0006,0.380429 1.845636,0.28009 2.654194,-0.315149 1.096357,-0.807116 1.103696,-0.905273 0.09687,-1.295692 -0.599144,-0.232333 -1.385192,-0.239584 -1.746773,-0.01613 -1.18986,0.735372 -3.335077,-0.92448 -3.122713,-2.416186 0.15035,-1.056102 0.706061,-1.4456 2.278838,-1.597248 2.963065,-0.285677 2.581056,-1.399437 -0.48,-1.399437 -1.408,0 -2.56,-0.288 -2.56,-0.64 0,-0.362176 1.875313,-0.645632 4.32,-0.652966 9.5031,-0.02854 48.790221,-0.03853 53.44,-0.01363 2.862286,0.01536 4.960006,0.297261 4.960006,0.666585 0,0.352 -0.72,0.64 -1.6,0.64 -1.26891,0 -1.6,0.322701 -1.6,1.55945 0,1.291578 -0.3573,1.593901 -2.080006,1.76 -1.552761,0.149715 -2.129133,0.544915 -2.273837,1.559091 -0.271008,1.899373 1.406151,2.327834 3.159513,0.807155 l 1.46934,-1.274342 0.72066,2.434323 c 0.79253,2.677069 0.028,4.535507 -1.06733,2.594323 -0.37294,-0.660953 -1.38709,-1.119987 -2.474432,-1.119987 -2.122976,0 -3.853914,-1.457773 -3.853914,-3.245715 0,-1.465472 2.160467,-3.794285 3.52,-3.794285 0.528,0 0.96,-0.288 0.96,-0.64 0,-0.352 -1.44,-0.64 -3.2,-0.64 h -3.2 v 4.48 c 0,3.555559 -0.198093,4.48 -0.96,4.48 -0.761907,0 -0.96,-0.924441 -0.96,-4.48 0,-4.053331 -0.121907,-4.48 -1.28,-4.48 -1.158093,0 -1.28,0.426669 -1.28,4.48 0,3.555559 -0.198093,4.48 -0.96,4.48 -0.528,0 -0.96,-0.412736 -0.96,-0.917197 0,-0.594284 -0.643488,-0.898899 -1.827769,-0.865222 -2.251444,0.06401 -3.042688,-0.394214 -3.464237,-2.006202 -0.499987,-1.911974 1.233689,-3.891379 3.408294,-3.891379 1.036045,0 1.883712,-0.288 1.883712,-0.64 0,-0.355558 -1.706669,-0.64 -3.84,-0.64 h -3.84 v 4.48 c 0,3.555559 -0.198093,4.48 -0.96,4.48 -0.761907,0 -0.96,-0.924441 -0.96,-4.48 0,-4.352 -0.0457,-4.48 -1.6,-4.48 -1.173331,0 -1.6,0.341331 -1.6,1.28 0,0.98985 -0.426669,1.28 -1.882227,1.28 -2.816832,0 -2.993344,1.170663 -0.211174,1.40057 2.210572,0.182669 2.413401,0.360793 2.413401,2.11943 0,1.279251 -0.320096,1.92 -0.959155,1.92 -0.527539,0 -0.959539,-0.432 -0.96,-0.96 -4.67e-4,-0.528 -0.216845,-1.032 -0.480845,-1.12 -2.19015,-0.730048 -2.440832,1.786157 -0.32,3.211981 1.977338,1.329344 0.821095,2.266112 -1.316288,1.066432 -1.570669,-0.881594 -1.723712,-1.306253 -1.723712,-4.78295 0,-3.68656 0.05946,-3.822304 1.76,-4.017972 3.011341,-0.346496 1.928371,-1.397491 -1.44,-1.397491 h -3.2 v 4.48 c 0,3.555559 -0.198095,4.48 -0.96,4.48 -0.761904,0 -0.96,-0.924441 -0.96,-4.48 0,-4.053331 -0.121904,-4.48 -1.28,-4.48 -1.158095,0 -1.28,0.426669 -1.28,4.48 0,3.555559 -0.198095,4.48 -0.96,4.48 -0.647346,0 -0.96,-0.647609 -0.96,-1.988473 0,-1.633172 -0.200122,-1.910586 -1.12,-1.552583 -1.976545,0.769248 -2.401883,0.684787 -2.311111,-0.458944 0.04889,-0.616 -0.311111,-1.12 -0.8,-1.12 -1.217553,0 -1.118633,1.885351 0.173854,3.31353 1.264789,1.397574 0.615509,2.369677 -0.93344,1.397542 -1.56775,-0.983936 -2.478366,-3.886176 -1.639365,-5.224845 0.819084,-1.306886 3.3075,-1.784787 4.271877,-0.820409 1.202825,1.202822 2.358185,0.759033 2.358185,-0.905818 0,-1.573331 -0.08533,-1.6 -5.12,-1.6 -4.693333,0 -5.12,0.106669 -5.12,1.28 0,1.036192 -0.426667,1.28 -2.24,1.28 -3.002845,0 -2.871491,1.150471 0.16,1.401363 2.060103,0.170503 2.427835,0.43913 2.596539,1.896756 0.13284,1.14775 -0.234802,2.000236 -1.134336,2.630297 -0.794622,0.556576 -1.178579,1.329056 -0.952907,1.917146 0.79217,2.064365 -0.888987,1.612685 -2.786642,-0.748698 z m 39.034677,-5.315533 c -0.459238,-0.459238 -0.757331,-0.497024 -0.757331,-0.096 0,0.85426 0.756871,1.61113 1.184,1.184 0.181869,-0.181862 -0.01011,-0.671462 -0.426669,-1.088 z m 2.379213,-1.18055 c -1.24039,-0.766605 -1.543264,-0.165613 -0.531136,1.053933 0.617261,0.74375 0.943277,0.819238 1.129203,0.261446 0.14377,-0.431309 -0.125363,-1.023232 -0.598067,-1.315379 z m 108.223459,5.388218 c 0,-0.226048 0.5882,-2.386048 1.3071,-4.8 0.98998,-3.324173 1.58772,-4.388999 2.46376,-4.388999 1.64018,0 4.24175,9.150112 2.70477,9.51305 -0.54281,0.128179 -1.09389,-0.08782 -1.22462,-0.48 -0.29519,-0.885575 -3.33101,-0.952154 -3.33101,-0.07305 0,0.352 -0.432,0.64 -0.96,0.64 -0.528,0 -0.96,-0.184947 -0.96,-0.411001 z m 4.4702,-3.588999 c -0.005,-0.44 -0.25343,-1.184345 -0.55121,-1.654099 -0.41366,-0.652563 -0.62144,-0.548045 -0.88059,0.442938 -0.18656,0.713376 -0.17851,1.457721 0.0179,1.654105 0.63035,0.630343 1.42403,0.381709 1.41393,-0.442944 z m 3.8498,-0.8 c 0,-3.84 0.192,-4.8 0.96,-4.8 0.73697,0 0.96,0.817779 0.96,3.52 0,3.366522 0.0727,3.52 1.66847,3.52 1.25849,0 1.57302,0.248755 1.28,1.012346 -0.21366,0.556787 -0.38847,1.132787 -0.38847,1.28 0,0.147206 -1.008,0.267654 -2.24,0.267654 h -2.24 z m 6.4,0.04058 c 0,-2.80039 0.26974,-4.840576 0.64,-4.840576 0.352,0 0.64,1.584 0.64,3.52 0,3.354746 0.0773,3.52 1.64692,3.52 2.55987,0 1.79712,2.184467 -0.85216,2.440551 l -2.07476,0.20055 v -4.84055 z m 5.30298,3.925735 c 0.17595,-0.458541 0.82072,-2.618541 1.43281,-4.8 1.50201,-5.353114 2.9937,-5.448973 4.45503,-0.286285 0.5729,2.024 1.18875,4.184 1.36854,4.8 0.38322,1.31296 -0.54058,1.442342 -2.32805,0.326048 -1.01188,-0.63193 -1.53074,-0.63193 -2.54263,0 -1.65339,1.032563 -2.78992,1.013619 -2.3857,-0.03974 z m 4.29702,-3.966311 c 0,-0.88 -0.288,-1.6 -0.64,-1.6 -0.352,0 -0.64,0.72 -0.64,1.6 0,0.88 0.288,1.6 0.64,1.6 0.352,0 0.64,-0.72 0.64,-1.6 z m 4.48,0 c 0,-2.773331 0.27022,-4.8 0.64,-4.8 0.352,0 0.64,0.72 0.64,1.6 0,1.173331 0.34133,1.6 1.28,1.6 0.93867,0 1.28,-0.426669 1.28,-1.6 0,-0.995558 0.36267,-1.6 0.96,-1.6 0.768,0 0.96,0.96 0.96,4.8 0,3.84 -0.192,4.8 -0.96,4.8 -0.64,0 -0.96,-0.64 -0.96,-1.92 0,-1.493331 -0.28444,-1.92 -1.28,-1.92 -0.99556,0 -1.28,0.426669 -1.28,1.92 0,1.056 -0.288,1.92 -0.64,1.92 -0.36978,0 -0.64,-2.026669 -0.64,-4.8 z m 7.72517,0.482035 c 0.67915,-2.37488 1.23483,-4.554912 1.23483,-4.844512 0,-0.2896 0.62006,-0.434515 1.37792,-0.322035 1.09878,0.163079 1.61284,1.047258 2.53751,4.364512 1.42477,5.111309 1.42519,5.12 0.24457,5.12 -0.528,0 -0.96,-0.288 -0.96,-0.64 0,-0.833299 -3.00499,-0.833299 -3.52,0 -0.21755,0.352 -0.79022,0.64 -1.2726,0.64 -0.70739,0 -0.63818,-0.835315 0.35777,-4.317965 z m 3.15483,-0.519808 c 0,-0.92887 -0.27702,-1.46656 -0.64,-1.242227 -0.83241,0.514458 -0.83241,2.88 0,2.88 0.352,0 0.64,-0.736998 0.64,-1.637773 z m 4.48,-6.4e-4 v -4.83863 l 2.4,0.19863 2.4,0.198637 0.10754,3.837632 c 0.12297,4.388218 -0.47074,5.442144 -3.0659,5.442144 h -1.84164 v -4.838637 z m 3.2,1.600864 c 0,-0.331449 -0.288,-0.602451 -0.64,-0.602451 -0.352,0 -0.64,0.448999 -0.64,0.997773 0,0.548774 0.288,0.819776 0.64,0.602227 0.352,-0.217549 0.64,-0.666547 0.64,-0.997773 z m 0,-3.84 c 0,-0.331449 -0.288,-0.602451 -0.64,-0.602451 -0.352,0 -0.64,0.448999 -0.64,0.997773 0,0.548774 0.288,0.819776 0.64,0.602227 0.352,-0.217549 0.64,-0.666547 0.64,-0.997773 z m 3.20869,6.277773 c 0.004,-0.44 0.52464,-2.528 1.15524,-4.64 0.86334,-2.891545 1.46667,-3.886995 2.44268,-4.030278 1.08753,-0.159655 1.4189,0.355385 2.05881,3.2 0.41947,1.864653 0.93394,4.038278 1.14327,4.830278 0.27922,1.056455 0.10502,1.44 -0.65405,1.44 -0.56906,-2.24e-4 -1.03464,-0.288224 -1.03464,-0.640224 0,-0.352 -0.72,-0.64 -1.6,-0.64 -0.88,0 -1.6,0.288 -1.6,0.64 0,0.352 -0.432,0.64 -0.96,0.64 -0.528,0 -0.95609,-0.36 -0.95131,-0.8 z m 3.83131,-3.2 c 0,-2.732582 -0.004,-2.743936 -0.64,-1.76 -0.8126,1.257408 -0.8126,2.724199 0,2.453331 0.352,-0.117331 0.64,-0.429331 0.64,-0.693331 z m 4.48,-0.8 v -4.8 h 1.8208 c 2.41969,0 3.9392,1.809274 3.9392,4.690394 0,2.779955 -1.8045,4.909606 -4.16,4.909606 -1.56444,0 -1.6,-0.106669 -1.6,-4.8 z m 3.71462,-0.192403 c -0.31362,-2.625101 -1.79462,-2.526912 -1.79462,0.118758 0,1.792896 0.21017,2.192596 0.99462,1.891578 0.62224,-0.238778 0.92175,-0.991514 0.8,-2.01056 z"
         id="path279" />
    </g>
  </g>
</svg>
